<?xml version="1.0" standalone="no"?>
<!DOCTYPE svg PUBLIC "-//W3C//DTD SVG 20010904//EN"
 "http://www.w3.org/TR/2001/REC-SVG-20010904/DTD/svg10.dtd">
<svg version="1.0" xmlns="http://www.w3.org/2000/svg"
 width="1173.000000pt" height="1173.000000pt" viewBox="0 0 1173.000000 1173.000000"
 preserveAspectRatio="xMidYMid meet">
<metadata>
Created by potrace 1.11, written by Peter Selinger 2001-2013
</metadata>
<g transform="translate(0.000000,1173.000000) scale(0.100000,-0.100000)"
fill="#000000" stroke="none">
<path d="M6776 11723 c-1 -1 -28 -3 -61 -4 -89 -3 -88 -2 -80 -73 4 -34 9 -72
10 -86 2 -14 5 -41 8 -60 3 -19 17 -123 32 -230 14 -107 27 -208 30 -225 2
-16 7 -52 10 -80 4 -27 8 -61 10 -75 2 -14 7 -47 10 -75 3 -27 8 -61 10 -75 2
-14 7 -49 10 -79 4 -30 8 -63 10 -73 2 -11 7 -47 10 -81 4 -34 8 -64 10 -67 2
-3 6 -34 10 -70 3 -36 10 -90 15 -120 5 -30 11 -79 14 -108 3 -29 8 -63 11
-75 2 -12 7 -44 10 -72 5 -48 21 -168 30 -237 3 -18 7 -51 10 -73 3 -22 7 -49
10 -60 2 -11 4 -22 4 -25 1 -3 28 -6 61 -6 l60 0 1 36 c1 19 2 53 4 75 4 62
15 243 20 315 2 36 7 112 10 170 4 58 8 132 10 165 2 33 7 101 10 150 3 50 7
122 10 160 2 39 7 120 10 180 3 61 8 142 11 180 2 39 6 102 9 140 6 93 13 208
20 330 3 55 8 131 11 168 l4 68 -191 -3 c-105 -2 -192 -4 -193 -5z"/>
<path d="M7456 10844 c3 -484 7 -964 8 -1069 l1 -190 58 -5 c32 -3 60 -3 62 0
2 3 6 22 9 42 3 21 10 57 15 80 6 24 13 59 16 78 3 19 10 60 16 90 6 30 12 66
15 80 2 14 9 48 15 76 5 28 12 64 15 80 2 16 7 43 11 59 3 17 7 37 8 45 3 20
12 68 30 155 7 39 18 97 24 130 6 33 13 71 16 85 8 39 54 282 59 310 2 14 12
66 21 115 10 50 19 101 21 115 3 14 7 32 9 40 3 8 7 33 11 55 3 22 9 58 14 80
5 22 12 56 15 75 3 19 14 80 25 135 11 55 22 117 24 138 5 36 4 37 -29 38 -19
1 -38 2 -42 3 -5 2 -44 6 -88 10 -44 4 -96 9 -115 11 -19 2 -83 7 -143 11
l-107 6 6 -878z"/>
<path d="M6319 11686 c-2 -2 -26 -7 -54 -10 -44 -6 -118 -17 -210 -32 -16 -2
-52 -9 -80 -14 -27 -5 -61 -12 -75 -14 -80 -15 -90 -19 -86 -35 6 -20 55 -206
185 -701 22 -85 50 -189 61 -230 11 -41 43 -163 71 -270 28 -107 64 -244 80
-305 16 -60 32 -118 34 -128 2 -10 14 -52 25 -95 12 -42 23 -84 25 -92 3 -15
26 -107 46 -184 l10 -38 57 6 c31 3 61 5 65 6 5 0 6 3 4 8 -3 4 -8 63 -11 132
-4 69 -9 141 -11 160 -1 19 -6 87 -10 150 -3 63 -8 138 -10 165 -2 28 -7 97
-10 155 -3 58 -8 128 -10 155 -3 28 -7 93 -10 145 -6 109 -12 210 -20 325 -8
100 -13 185 -20 300 -3 50 -7 119 -10 155 -2 36 -7 112 -10 170 -6 95 -13 128
-26 116z"/>
<path d="M8268 11613 c0 -10 -2 -22 -3 -28 -1 -5 -5 -37 -9 -70 -4 -33 -9 -71
-11 -85 -2 -14 -6 -52 -10 -85 -3 -33 -8 -71 -10 -85 -5 -35 -17 -140 -20
-170 -1 -14 -5 -47 -9 -75 -10 -69 -13 -95 -26 -212 -6 -56 -12 -110 -14 -120
-2 -10 -7 -52 -12 -93 -4 -41 -8 -77 -9 -80 -1 -3 -5 -39 -9 -80 -5 -41 -10
-82 -11 -90 -2 -8 -6 -44 -10 -80 -3 -36 -8 -76 -10 -90 -2 -14 -7 -50 -10
-80 -3 -30 -8 -66 -10 -80 -2 -14 -6 -50 -10 -80 -3 -30 -8 -71 -11 -90 -2
-19 -6 -53 -9 -75 -2 -22 -7 -67 -11 -100 -4 -33 -8 -82 -8 -110 l-1 -49 40
-7 c22 -4 47 -9 55 -11 14 -3 27 35 180 507 149 463 269 833 327 1010 36 110
66 205 67 210 1 6 23 74 49 153 26 79 47 145 47 146 0 3 -127 36 -196 51 -111
24 -310 65 -316 65 -4 0 -9 -8 -10 -17z"/>
<path d="M5390 11499 c-193 -54 -370 -112 -370 -121 0 -5 70 -183 156 -396 86
-213 165 -407 174 -432 23 -59 288 -716 305 -755 7 -16 45 -111 85 -210 40
-99 73 -181 74 -182 2 -2 101 26 113 32 2 1 -27 162 -53 295 -16 79 -166 859
-170 880 -2 14 -9 48 -15 76 -5 28 -12 64 -15 80 -4 24 -15 79 -30 149 -1 6
-9 51 -18 100 -8 50 -18 101 -21 115 -6 25 -33 166 -62 318 -12 63 -19 82 -32
81 -9 0 -63 -14 -121 -30z"/>
<path d="M9064 11412 c-3 -15 -13 -54 -21 -87 -9 -33 -21 -85 -28 -115 -7 -30
-56 -226 -109 -435 -53 -209 -98 -389 -101 -400 -2 -11 -60 -243 -128 -515
l-125 -495 52 -21 c28 -12 55 -19 60 -16 4 2 30 50 56 106 26 55 82 175 125
266 42 91 101 216 131 278 30 63 54 115 54 117 0 2 36 79 80 171 44 91 80 168
80 169 0 2 27 61 61 132 71 150 117 246 152 323 39 86 126 270 151 321 l23 47
-122 46 c-68 26 -182 66 -254 91 l-131 44 -6 -27z"/>
<path d="M4575 11216 c-199 -84 -315 -139 -315 -150 0 -7 135 -253 333 -606
11 -19 75 -134 142 -255 167 -301 308 -552 335 -600 13 -22 34 -60 48 -85 55
-101 98 -177 114 -205 10 -16 27 -49 39 -72 24 -46 19 -46 110 -3 l26 12 -18
52 c-9 28 -49 148 -87 266 -65 201 -246 752 -464 1419 -52 157 -98 286 -103
288 -6 1 -77 -26 -160 -61z"/>
<path d="M9831 11113 c-7 -16 -26 -64 -42 -108 -16 -44 -34 -89 -39 -100 -5
-11 -19 -45 -30 -75 -11 -30 -25 -64 -30 -75 -4 -11 -31 -78 -58 -150 -84
-217 -169 -437 -247 -635 -150 -383 -315 -812 -315 -818 1 -13 102 -54 110
-46 9 9 153 235 357 559 88 140 337 533 402 635 16 25 73 115 126 200 54 85
134 211 178 279 61 95 76 126 65 133 -23 15 -450 228 -457 228 -4 0 -13 -12
-20 -27z"/>
<path d="M3950 10913 c-156 -89 -239 -138 -270 -158 -19 -12 -59 -37 -87 -55
-29 -18 -53 -36 -53 -39 0 -3 9 -17 20 -31 16 -19 265 -357 392 -531 63 -85
159 -216 165 -224 5 -5 54 -73 110 -150 57 -77 166 -225 243 -330 77 -104 146
-199 154 -210 55 -75 127 -172 134 -180 5 -6 16 -22 26 -37 l17 -26 55 31 c30
17 53 34 51 37 -2 3 -15 30 -29 60 -14 30 -60 126 -102 214 -42 87 -76 159
-76 161 0 1 -34 74 -76 161 -42 88 -91 192 -110 232 -99 212 -115 245 -247
522 -95 201 -151 320 -209 445 -33 72 -61 131 -62 132 -1 1 -22 -9 -46 -24z"/>
<path d="M3159 10397 c-202 -152 -279 -218 -271 -233 4 -6 72 -81 152 -165 80
-84 162 -171 184 -193 51 -54 172 -181 386 -406 96 -101 211 -222 255 -269 44
-46 98 -103 120 -126 82 -85 330 -347 345 -365 15 -18 18 -17 61 16 24 20 45
39 47 42 1 4 -54 95 -122 202 -311 487 -372 583 -386 606 -31 50 -437 687
-492 771 -32 49 -61 95 -65 103 -5 11 -52 83 -77 117 -1 1 -63 -44 -137 -100z"/>
<path d="M2472 9796 c-100 -100 -182 -187 -182 -192 0 -10 -8 -3 495 -414 204
-166 389 -317 412 -337 23 -19 147 -120 275 -224 128 -105 251 -205 273 -224
103 -86 191 -155 196 -155 7 0 79 77 79 84 0 4 -75 98 -150 186 -21 25 -108
131 -195 235 -86 105 -167 201 -178 215 -12 14 -42 50 -66 80 -25 30 -50 60
-56 65 -6 6 -17 19 -25 31 -8 11 -34 43 -57 70 -23 27 -168 202 -323 389 -155
187 -289 348 -298 357 -16 16 -28 7 -200 -166z"/>
<path d="M2025 9303 c-33 -42 -65 -81 -70 -87 -23 -25 -185 -248 -185 -254 1
-4 138 -92 305 -197 447 -278 579 -361 1059 -662 238 -150 438 -273 443 -273
5 0 24 21 42 46 l33 45 -92 87 c-51 48 -110 103 -131 122 -20 19 -92 87 -160
150 -68 63 -136 127 -153 142 -16 16 -88 84 -160 152 -72 67 -144 135 -161
150 -25 24 -122 114 -306 286 -20 19 -95 89 -166 156 -182 172 -227 213 -233
213 -3 0 -32 -34 -65 -76z"/>
<path d="M6807 9053 c-1 -1 -47 -4 -102 -8 -55 -3 -111 -8 -125 -10 -14 -2
-50 -6 -80 -10 -82 -10 -171 -23 -200 -30 -3 -1 -25 -5 -50 -9 -25 -4 -81 -17
-125 -27 -44 -11 -89 -22 -100 -24 -69 -15 -281 -85 -400 -132 -238 -93 -455
-205 -665 -341 -83 -54 -284 -200 -326 -238 -12 -10 -44 -37 -72 -59 -73 -58
-346 -335 -428 -435 -96 -116 -181 -231 -238 -320 -27 -41 -56 -86 -65 -100
-10 -14 -20 -32 -24 -40 -4 -8 -18 -33 -32 -55 -52 -82 -204 -405 -253 -535
-92 -245 -169 -542 -196 -750 -3 -25 -8 -58 -11 -75 -33 -202 -39 -701 -10
-887 2 -13 6 -48 10 -78 4 -30 8 -62 10 -70 2 -8 6 -35 10 -60 53 -357 209
-808 400 -1155 59 -108 164 -462 210 -710 10 -49 19 -97 20 -106 6 -31 16 -94
20 -124 3 -16 7 -46 9 -65 7 -43 17 -133 31 -260 20 -192 28 -886 12 -1100 -4
-58 -10 -132 -12 -165 -6 -79 -15 -179 -22 -235 -3 -25 -6 -58 -8 -75 -4 -52
-17 -159 -21 -180 -2 -11 -6 -42 -9 -70 -3 -27 -7 -61 -10 -75 -3 -13 -7 -42
-10 -65 -3 -22 -8 -47 -10 -55 -2 -8 -7 -33 -10 -55 -3 -23 -8 -52 -10 -65
-25 -128 -36 -193 -32 -197 8 -8 343 121 538 208 624 277 1385 739 1899 1154
20 17 54 44 75 60 58 45 186 151 254 210 146 126 180 156 245 214 101 92 569
562 646 649 36 41 76 86 90 100 46 49 245 286 326 387 43 55 81 102 84 105 3
3 32 37 64 75 33 39 128 138 211 220 268 266 509 436 807 569 31 15 60 26 63
26 4 0 21 7 38 15 80 36 315 91 442 103 91 9 325 7 395 -2 150 -20 367 -77
495 -129 163 -67 414 -215 553 -328 l62 -51 -29 78 c-38 105 -117 314 -146
389 -13 33 -121 319 -239 635 -119 316 -222 586 -227 600 -12 27 -101 263
-263 695 -31 83 -60 159 -65 170 -5 11 -32 83 -61 160 -28 77 -65 174 -80 215
-16 41 -79 208 -140 370 -61 162 -115 304 -119 315 -5 11 -71 184 -146 385
-75 201 -146 389 -158 418 -17 43 -38 67 -111 131 -381 329 -802 567 -1266
719 -115 37 -279 84 -340 96 -14 2 -50 10 -80 16 -85 17 -209 38 -270 45 -30
3 -71 8 -90 10 -101 13 -525 27 -533 18z"/>
<path d="M1542 8623 c-65 -105 -162 -272 -162 -279 0 -2 -11 -22 -25 -43 l-24
-39 42 -20 c135 -64 537 -251 689 -320 57 -27 233 -108 428 -199 41 -20 131
-61 200 -93 69 -31 163 -75 210 -97 47 -22 110 -52 140 -66 30 -14 94 -43 143
-66 l87 -40 26 40 c14 22 27 46 30 54 3 8 -45 49 -128 109 -73 53 -143 103
-155 112 -27 20 -511 370 -538 390 -63 45 -242 175 -250 181 -5 5 -26 20 -45
33 -19 13 -39 28 -45 33 -16 13 -337 246 -375 272 -60 41 -124 87 -156 111
l-31 24 -61 -97z"/>
<path d="M1170 7933 c-37 -79 -139 -319 -163 -379 l-16 -42 42 -15 c23 -8 65
-22 92 -30 79 -25 464 -147 525 -167 30 -10 143 -46 250 -80 107 -34 206 -65
220 -70 14 -5 113 -37 220 -70 107 -34 220 -70 250 -80 30 -10 116 -37 190
-60 74 -23 144 -45 155 -50 31 -13 88 -30 90 -28 10 12 45 90 45 100 0 12
-135 90 -414 241 -39 21 -96 52 -126 69 -30 17 -80 45 -110 61 -30 17 -149 82
-265 145 -115 63 -232 127 -260 142 -41 22 -247 136 -500 275 -22 12 -75 41
-117 64 l-77 42 -31 -68z"/>
<path d="M885 7218 c-42 -134 -135 -470 -135 -489 0 -4 28 -12 63 -18 34 -6
73 -13 87 -16 14 -3 52 -10 85 -15 33 -6 80 -15 105 -20 25 -5 56 -12 70 -14
14 -2 66 -11 115 -20 50 -10 140 -26 200 -37 61 -11 130 -24 155 -29 53 -11
299 -57 350 -65 19 -3 116 -21 215 -40 99 -19 196 -37 215 -40 19 -3 69 -12
110 -20 41 -8 89 -17 105 -20 17 -3 41 -7 55 -10 14 -3 57 -11 97 -19 l72 -14
16 56 c9 30 13 58 8 63 -4 4 -62 28 -128 54 -66 25 -129 50 -140 54 -11 5 -22
8 -25 8 -3 0 -16 6 -30 13 -14 8 -27 15 -30 15 -3 0 -151 59 -330 129 -411
163 -896 355 -1113 440 -92 36 -172 66 -178 66 -5 0 -11 -6 -14 -12z"/>
<path d="M685 6427 c-7 -21 -34 -161 -39 -207 -3 -25 -8 -56 -10 -70 -6 -34
-14 -85 -21 -145 -4 -27 -8 -57 -11 -67 -7 -24 3 -27 112 -33 55 -3 133 -8
174 -10 41 -2 125 -7 185 -10 61 -3 142 -7 180 -10 39 -2 111 -7 160 -10 50
-3 128 -8 175 -11 47 -2 126 -7 175 -10 127 -6 237 -12 525 -30 52 -3 127 -7
165 -9 39 -3 118 -7 176 -10 l106 -5 10 58 c6 31 10 58 9 59 -2 2 -158 44
-213 57 -10 2 -90 23 -178 46 -88 22 -168 43 -178 45 -28 6 -333 84 -397 101
-30 9 -62 17 -71 19 -29 6 -182 46 -234 60 -27 8 -158 42 -290 75 -247 63
-263 67 -293 74 -9 2 -37 9 -62 16 -25 7 -52 14 -61 15 -9 2 -33 8 -53 14 -28
7 -38 7 -41 -2z"/>
<path d="M572 5608 c0 -7 -4 -127 -7 -266 l-7 -253 93 6 c114 7 216 14 289 20
30 2 96 7 145 10 50 3 119 7 155 10 36 3 101 7 145 10 44 3 107 7 140 10 33 2
107 7 165 11 58 3 121 7 140 9 19 1 85 5 145 9 61 4 128 9 150 11 36 4 147 11
290 20 143 8 270 17 272 19 7 6 11 116 5 119 -4 3 -29 7 -57 11 -27 3 -120 14
-205 25 -85 11 -179 23 -209 26 -30 4 -61 8 -70 10 -20 3 -128 18 -156 20 -48
5 -151 17 -165 20 -8 2 -44 6 -80 10 -36 4 -72 8 -80 10 -8 2 -44 6 -80 10
-36 3 -72 8 -80 10 -8 2 -42 7 -74 10 -33 3 -73 8 -90 10 -41 6 -191 25 -241
31 -22 3 -56 7 -75 10 -19 3 -57 7 -85 10 -27 2 -59 6 -70 9 -11 2 -47 7 -80
10 -33 4 -71 8 -85 11 -85 14 -137 15 -138 2z"/>
<path d="M575 4726 c3 -39 8 -100 11 -136 3 -36 7 -81 9 -100 27 -224 26 -220
43 -220 10 0 33 4 52 10 19 5 55 12 80 15 24 4 47 8 50 10 3 2 21 6 40 9 19 3
80 14 135 25 55 11 114 22 130 25 24 4 180 35 255 51 8 2 101 20 205 40 105
20 199 39 210 41 11 3 88 18 170 34 139 27 535 104 685 134 l65 13 -1 34 c-1
19 -2 47 -3 62 l-1 28 -1071 -2 -1070 -2 6 -71z"/>
<path d="M2665 4233 c-49 -6 -112 -14 -140 -18 -27 -3 -59 -7 -70 -9 -11 -2
-47 -7 -80 -10 -74 -9 -108 -14 -160 -21 -22 -3 -62 -8 -90 -11 -27 -2 -77 -9
-110 -14 -33 -5 -89 -12 -125 -15 -36 -4 -72 -9 -81 -10 -9 -2 -40 -6 -70 -9
-30 -4 -71 -9 -92 -12 -45 -7 -69 -10 -150 -19 -34 -3 -69 -8 -77 -10 -8 -2
-44 -7 -80 -10 -36 -4 -72 -8 -80 -10 -8 -2 -44 -6 -80 -10 -36 -4 -73 -9 -84
-11 -10 -2 -44 -6 -75 -9 -31 -3 -67 -8 -81 -10 -14 -3 -47 -7 -75 -11 -27 -3
-79 -10 -115 -15 -36 -5 -69 -9 -73 -9 -5 0 -6 -12 -3 -27 2 -16 7 -44 11 -64
3 -20 22 -106 41 -190 53 -231 55 -239 62 -239 4 0 1295 425 1887 622 145 48
143 47 138 71 -19 84 -24 96 -41 94 -9 -1 -57 -7 -107 -14z"/>
</g>
</svg>
