<?xml version="1.0" encoding="utf-8"?>
<!-- Generator: Adobe Illustrator 15.1.0, SVG Export Plug-In . SVG Version: 6.00 Build 0)  -->
<!DOCTYPE svg PUBLIC "-//W3C//DTD SVG 1.1//EN" "http://www.w3.org/Graphics/SVG/1.1/DTD/svg11.dtd">
<svg version="1.1" xmlns="http://www.w3.org/2000/svg" xmlns:xlink="http://www.w3.org/1999/xlink" x="0px" y="0px" width="1024px"
	 height="768px" viewBox="0 0 1024 768" enable-background="new 0 0 1024 768" xml:space="preserve">
<g id="SpearRight">
	<g>
		<polygon fill="#5A5A5A" stroke="#5A5A5A" stroke-miterlimit="10" points="917.724,209.431 917.871,198.109 944.345,164.029 
			935.095,206.295 927.367,213.944 		"/>
		<line fill="none" stroke="#7A7A7A" stroke-miterlimit="10" x1="943.384" y1="165.825" x2="921.863" y2="211.82"/>
		
			<rect x="570.245" y="440.9" transform="matrix(0.4238 -0.9058 0.9058 0.4238 64.3364 993.5817)" fill="#3A3A3A" width="485.696" height="10.648"/>
		
			<rect x="911.291" y="213.52" transform="matrix(0.4238 -0.9058 0.9058 0.4238 331.6251 958.955)" fill="#5A5A5A" width="16.381" height="10.648"/>
		
			<rect x="654.199" y="696.473" transform="matrix(0.4238 -0.9058 0.9058 0.4238 -236.054 1032.5262)" fill="#5A5A5A" width="78.629" height="10.647"/>
	</g>
</g>
<g id="SpearLeft">
	<g>
		<polygon fill="#5A5A5A" stroke="#5A5A5A" stroke-miterlimit="10" points="110.651,203.431 110.504,192.109 84.03,158.029 
			93.28,200.295 101.008,207.944 		"/>
		<line fill="none" stroke="#7A7A7A" stroke-miterlimit="10" x1="84.991" y1="159.825" x2="106.512" y2="205.82"/>
		
			<rect x="-27.566" y="434.9" transform="matrix(-0.4238 -0.9058 0.9058 -0.4238 -92.2189 821.783)" fill="#3A3A3A" width="485.696" height="10.648"/>
		
			<rect x="100.703" y="207.52" transform="matrix(-0.4238 -0.9058 0.9058 -0.4238 -37.7523 401.6708)" fill="#5A5A5A" width="16.381" height="10.648"/>
		
			<rect x="295.547" y="690.473" transform="matrix(-0.4238 -0.9058 0.9058 -0.4238 -153.4439 1293.9781)" fill="#5A5A5A" width="78.629" height="10.647"/>
	</g>
</g>
<g id="Ribbon">
	<polygon fill="#672837" points="895,714 722,714 722,559 895,559 825,636.5 	"/>
	<polygon fill="#672837" points="134,714 307,714 307,559 134,559 204,636.5 	"/>
	<polygon fill="#491D27" points="247.771,590 307,559 307,590 	"/>
	<polygon fill="#491D27" points="781,590 722,559 722,590 	"/>
	<rect x="248" y="589" fill="#782F40" width="531" height="155"/>
	<text transform="matrix(1 0 0 1 276.2476 614.665)"><tspan x="0" y="0" fill="#FFFFFF" font-family="'TwCenMT-Regular'" font-size="18">Th</tspan><tspan x="15.768" y="0" fill="#FFFFFF" font-family="'TwCenMT-Regular'" font-size="18">r</tspan><tspan x="21.401" y="0" fill="#FFFFFF" font-family="'TwCenMT-Regular'" font-size="18">ough the student-dri</tspan><tspan x="164.109" y="0" fill="#FFFFFF" font-family="'TwCenMT-Regular'" font-size="18">v</tspan><tspan x="171.633" y="0" fill="#FFFFFF" font-family="'TwCenMT-Regular'" font-size="18">en Academic and Career</tspan><tspan x="351.493" y="0" fill="#FFFFFF" font-family="'TwCenMT-Regular'" font-size="18"> </tspan><tspan x="357.178" y="0" fill="#FFFFFF" font-family="'TwCenMT-Regular'" font-size="18">Planning p</tspan><tspan x="432.483" y="0" fill="#FFFFFF" font-family="'TwCenMT-Regular'" font-size="18">r</tspan><tspan x="438.116" y="0" fill="#FFFFFF" font-family="'TwCenMT-Regular'" font-size="18">ocess</tspan><tspan x="-11.984" y="21.6" fill="#FFFFFF" font-family="'TwCenMT-Regular'" font-size="18">educator</tspan><tspan x="51.561" y="21.6" fill="#FFFFFF" font-family="'TwCenMT-Regular'" font-size="18">s</tspan><tspan x="57.194" y="21.6" fill="#FFFFFF" font-family="'TwCenMT-Regular'" font-size="18">, families and the com</tspan><tspan x="213.209" y="21.6" fill="#FFFFFF" font-family="'TwCenMT-Regular'" font-size="18">m</tspan><tspan x="225.575" y="21.6" fill="#FFFFFF" font-family="'TwCenMT-Regular'" font-size="18">unity will suppo</tspan><tspan x="335.684" y="21.6" fill="#FFFFFF" font-family="'TwCenMT-Regular'" font-size="18">r</tspan><tspan x="342.04" y="21.6" fill="#FFFFFF" font-family="'TwCenMT-Regular'" font-size="18">t all students as th</tspan><tspan x="469.735" y="21.6" fill="#FFFFFF" font-family="'TwCenMT-Regular'" font-size="18">e</tspan><tspan x="478.014" y="21.6" fill="#FFFFFF" font-family="'TwCenMT-Regular'" font-size="18">y</tspan><tspan x="-1.191" y="43.2" fill="#FFFFFF" font-family="'TwCenMT-Regular'" font-size="18">e</tspan><tspan x="7.272" y="43.2" fill="#FFFFFF" font-family="'TwCenMT-Regular'" font-size="18">xplore interests in and enhance skills to de</tspan><tspan x="309.081" y="43.2" fill="#FFFFFF" font-family="'TwCenMT-Regular'" font-size="18">v</tspan><tspan x="316.604" y="43.2" fill="#FFFFFF" font-family="'TwCenMT-Regular'" font-size="18">elop an individualized</tspan><tspan x="32.124" y="64.8" fill="#FFFFFF" font-family="'TwCenMT-Regular'" font-size="18">plan so th</tspan><tspan x="101.504" y="64.8" fill="#FFFFFF" font-family="'TwCenMT-Regular'" font-size="18">e</tspan><tspan x="109.784" y="64.8" fill="#FFFFFF" font-family="'TwCenMT-Regular'" font-size="18">y thri</tspan><tspan x="146.452" y="64.8" fill="#FFFFFF" font-family="'TwCenMT-Regular'" font-size="18">v</tspan><tspan x="153.975" y="64.8" fill="#FFFFFF" font-family="'TwCenMT-Regular'" font-size="18">e in an e</tspan><tspan x="216.518" y="64.8" fill="#FFFFFF" font-family="'TwCenMT-Regular'" font-size="18">v</tspan><tspan x="224.042" y="64.8" fill="#FFFFFF" font-family="'TwCenMT-Regular'" font-size="18">e</tspan><tspan x="233.042" y="64.8" fill="#FFFFFF" font-family="'TwCenMT-Regular'" font-size="18">r</tspan><tspan x="238.5" y="64.8" fill="#FFFFFF" font-family="'TwCenMT-Regular'" font-size="18">-</tspan><tspan x="244.494" y="64.8" fill="#FFFFFF" font-family="'TwCenMT-Regular'" font-size="18">c</tspan><tspan x="252.141" y="64.8" fill="#FFFFFF" font-family="'TwCenMT-Regular'" font-size="18">hanging global com</tspan><tspan x="394.084" y="64.8" fill="#FFFFFF" font-family="'TwCenMT-Regular'" font-size="18">m</tspan><tspan x="406.45" y="64.8" fill="#FFFFFF" font-family="'TwCenMT-Regular'" font-size="18">unit</tspan><tspan x="431.042" y="64.8" fill="#FFFFFF" font-family="'TwCenMT-Regular'" font-size="18" letter-spacing="-1">y</tspan><tspan x="438.961" y="64.8" fill="#FFFFFF" font-family="'TwCenMT-Regular'" font-size="18">.</tspan><tspan x="164.572" y="115.2" fill="#FFFFFF" font-family="'Yellowtail'" font-size="24">We Are Spartans</tspan></text>
</g>
<g id="Go">
	<g>
		<g>
			<path fill="#E7E5DF" stroke="#FFFFFF" stroke-width="4" stroke-miterlimit="10" d="M277.59,298.736
				c0,66.214,26.89,126.147,70.345,169.476l0,0L516.8,298.683L347.785,129.414c-0.033,0.033-0.067,0.064-0.1,0.098
				C304.376,172.819,277.59,232.65,277.59,298.736z"/>
			<path fill="#E7E5DF" stroke="#FFFFFF" stroke-width="4" stroke-miterlimit="10" d="M236.123,298.643
				c0,77.779,31.587,147.357,82.632,198.357c0,0,0,0,0.002,0l30.113-30.389c-43.342-43.59-70.155-102.626-70.155-168.741
				c0-65.71,26.49-125.133,69.362-168.378l-29.497-29.505c-0.037,0.04-0.078-0.046-0.117-0.006
				C267.589,150.853,236.123,221.011,236.123,298.643z"/>
		</g>
		<rect x="292.496" y="283.009" fill="none" width="154.622" height="51.213"/>
		<text transform="matrix(1 0 0 1 351.6768 303.9072)" fill="#434343" font-family="'Yellowtail'" font-size="28.5516">GO</text>
		<g>
			<g>
				<path fill="#434343" d="M254.116,328.697c3.506-1.748,5.27-2.595,8.812-4.232c0.084,0.491,0.125,0.735,0.213,1.225
					c-2.158,1.011-3.232,1.527-5.377,2.579c2.602,0.627,3.903,0.921,6.507,1.468c-2.197,1.535-3.286,2.321-5.449,3.931
					c2.407,0.128,3.608,0.182,6.012,0.266c0.112,0.483,0.169,0.725,0.285,1.208c-3.901-0.112-5.855-0.197-9.768-0.428
					c2.362-1.792,3.553-2.666,5.956-4.369C258.429,329.734,256.99,329.405,254.116,328.697z"/>
				<path fill="#434343" d="M256.187,319.053c-0.069-0.521-0.102-0.782-0.167-1.303c2.325-0.288,3.487-0.432,5.812-0.72
					c0.062,0.503,0.095,0.755,0.161,1.258c-0.462,0.061-0.693,0.089-1.154,0.15c0.958,0.5,1.499,1.195,1.63,2.098
					c0.114,0.783-0.081,1.496-0.59,2.147c-0.51,0.652-1.188,1.054-2.043,1.194c-0.808,0.132-1.562-0.036-2.259-0.517
					s-1.105-1.117-1.22-1.9c-0.071-0.483-0.011-0.959,0.177-1.427c0.189-0.467,0.469-0.848,0.836-1.138
					C256.898,318.958,256.66,318.99,256.187,319.053z M259.085,318.49c-0.53,0.069-0.958,0.329-1.282,0.781
					c-0.324,0.451-0.446,0.958-0.366,1.519c0.078,0.546,0.338,0.995,0.773,1.343s0.906,0.48,1.411,0.402
					c0.547-0.085,0.98-0.353,1.305-0.8c0.324-0.447,0.447-0.944,0.368-1.497c-0.079-0.548-0.334-0.991-0.77-1.333
					C260.089,318.562,259.61,318.421,259.085,318.49z"/>
				<path fill="#434343" d="M261.636,315.374c-2.327,0.264-3.492,0.398-5.819,0.663c-0.058-0.509-0.086-0.767-0.14-1.276
					c0.387-0.041,0.581-0.062,0.968-0.103c-0.43-0.332-0.752-0.641-0.964-0.927s-0.334-0.618-0.369-0.994
					c-0.053-0.561,0.078-1.058,0.393-1.484s0.719-0.659,1.21-0.699c1.687-0.138,2.53-0.206,4.216-0.344
					c0.041,0.505,0.062,0.757,0.107,1.262c-1.541,0.138-2.311,0.208-3.852,0.345c-0.316,0.028-0.568,0.159-0.756,0.394
					c-0.188,0.235-0.265,0.519-0.233,0.853c0.042,0.433,0.253,0.79,0.631,1.067c0.378,0.276,0.812,0.389,1.301,0.337
					c1.268-0.134,1.902-0.203,3.17-0.337C261.552,314.627,261.579,314.876,261.636,315.374z"/>
				<path fill="#434343" d="M254.874,303.838c-0.021-0.523-0.031-0.785-0.049-1.309c2.341-0.079,3.511-0.117,5.852-0.196
					c0.017,0.505,0.026,0.758,0.047,1.263c-0.465,0.019-0.697,0.028-1.162,0.047c0.91,0.583,1.384,1.321,1.435,2.23
					c0.043,0.788-0.215,1.479-0.781,2.082c-0.566,0.603-1.279,0.94-2.142,1.003c-0.817,0.06-1.552-0.177-2.203-0.716
					s-1-1.208-1.043-1.997c-0.027-0.487,0.074-0.955,0.304-1.402c0.23-0.447,0.543-0.8,0.935-1.055
					C255.589,303.809,255.351,303.818,254.874,303.838z M257.811,303.54c-0.534,0.021-0.985,0.24-1.348,0.66
					c-0.363,0.419-0.532,0.915-0.502,1.479c0.029,0.549,0.248,1.017,0.65,1.401s0.858,0.56,1.369,0.526
					c0.553-0.036,1.009-0.264,1.373-0.679c0.363-0.415,0.529-0.897,0.5-1.453c-0.029-0.551-0.242-1.016-0.645-1.395
					C258.805,303.699,258.34,303.519,257.811,303.54z"/>
				<path fill="#434343" d="M254.735,295.395c0.004-0.512,0.007-0.769,0.016-1.28c2.248,0.036,3.372,0.053,5.62,0.089
					c0.828,0.013,1.526,0.317,2.1,0.901s0.86,1.277,0.862,2.091c0.001,0.619-0.162,1.19-0.489,1.715
					c-0.327,0.525-0.826,0.917-1.502,1.177c-0.01-0.521-0.015-0.782-0.021-1.303c0.629-0.398,0.942-0.94,0.94-1.63
					c-0.001-0.47-0.168-0.869-0.5-1.203c-0.332-0.333-0.73-0.505-1.198-0.509c-0.443-0.004-0.665-0.005-1.108-0.009
					c0.861,0.622,1.289,1.391,1.294,2.32c0.004,0.765-0.294,1.434-0.901,2.017c-0.607,0.583-1.329,0.889-2.171,0.908
					s-1.57-0.248-2.182-0.809c-0.611-0.561-0.92-1.243-0.925-2.037c-0.006-1.025,0.463-1.84,1.4-2.43
					C255.477,295.399,255.229,295.398,254.735,295.395z M257.655,295.241c-0.549-0.005-1.012,0.189-1.384,0.587
					c-0.372,0.398-0.557,0.897-0.555,1.491c0.001,0.543,0.197,1.021,0.585,1.43c0.388,0.408,0.833,0.606,1.334,0.599
					c0.544-0.008,1.011-0.217,1.399-0.623c0.388-0.405,0.58-0.88,0.578-1.432c-0.001-0.56-0.193-1.041-0.574-1.441
					S258.199,295.247,257.655,295.241z"/>
				<path fill="#434343" d="M258.224,286.37c-0.131,2.077-0.178,3.116-0.244,5.195c0.604-0.094,1.051-0.335,1.342-0.724
					c0.291-0.388,0.444-0.815,0.465-1.283c0.032-0.721-0.226-1.337-0.78-1.859c0.292-0.358,0.44-0.536,0.734-0.89
					c0.832,0.75,1.215,1.697,1.164,2.858c-0.039,0.891-0.361,1.622-0.976,2.208c-0.614,0.585-1.361,0.873-2.245,0.851
					c-0.828-0.021-1.54-0.349-2.129-0.994s-0.864-1.427-0.824-2.336c0.039-0.893,0.386-1.644,1.039-2.243
					S257.242,286.298,258.224,286.37z M256.997,291.4c0.048-1.498,0.081-2.245,0.163-3.742c-0.826,0.372-1.261,0.97-1.296,1.788
					C255.824,290.339,256.205,290.993,256.997,291.4z"/>
				<path fill="#434343" d="M260.998,285.204c-2.336-0.167-3.505-0.249-5.842-0.415c0.037-0.517,0.057-0.776,0.097-1.293
					c0.36,0.028,0.54,0.043,0.899,0.072c-0.344-0.333-0.589-0.647-0.736-0.938c-0.146-0.292-0.204-0.619-0.171-0.979
					c0.042-0.471,0.173-0.831,0.392-1.08c0.219-0.249,0.991-0.583,0.992-0.586c0.016-0.072-0.666-0.713-0.827-1.038
					c-0.161-0.324-0.22-0.687-0.175-1.088c0.055-0.492,0.278-0.897,0.666-1.211c0.388-0.314,0.819-0.439,1.294-0.381
					c1.691,0.208,2.536,0.311,4.227,0.52c-0.062,0.503-0.093,0.755-0.151,1.259c-1.565-0.181-2.347-0.27-3.912-0.451
					c-0.644-0.074-1.006,0.225-1.079,0.898c-0.042,0.384,0.088,0.727,0.39,1.026c0.302,0.3,0.695,0.475,1.18,0.524
					c1.269,0.128,1.903,0.191,3.171,0.319c-0.051,0.504-0.075,0.756-0.122,1.26c-1.504-0.14-2.254-0.21-3.758-0.351
					c-0.763-0.071-1.177,0.224-1.235,0.886c-0.034,0.393,0.092,0.741,0.381,1.039s0.664,0.463,1.122,0.5
					c1.316,0.104,1.975,0.155,3.291,0.259C261.053,284.454,261.034,284.705,260.998,285.204z"/>
				<path fill="#434343" d="M260.268,268.806c-0.351,2.058-0.511,3.089-0.797,5.155c0.61-0.03,1.082-0.224,1.412-0.58
					c0.331-0.355,0.529-0.765,0.6-1.229c0.108-0.715-0.083-1.359-0.579-1.938c0.329-0.326,0.493-0.489,0.823-0.812
					c0.747,0.836,1.028,1.822,0.854,2.974c-0.133,0.884-0.531,1.58-1.204,2.099c-0.673,0.518-1.446,0.725-2.323,0.61
					c-0.821-0.108-1.493-0.509-2.01-1.214s-0.71-1.515-0.574-2.417c0.134-0.886,0.561-1.599,1.273-2.126
					S259.299,268.631,260.268,268.806z M258.512,273.693c0.207-1.488,0.319-2.231,0.56-3.715c-0.861,0.283-1.357,0.835-1.479,1.646
					C257.458,272.511,257.768,273.204,258.512,273.693z"/>
				<path fill="#434343" d="M263.128,268.051c-2.306-0.411-3.459-0.617-5.765-1.027c0.09-0.506,0.138-0.759,0.231-1.265
					c0.382,0.071,0.574,0.106,0.956,0.177c-0.317-0.441-0.537-0.832-0.658-1.167s-0.144-0.689-0.07-1.061
					c0.11-0.554,0.378-0.996,0.802-1.316s0.879-0.428,1.36-0.326c1.656,0.35,2.481,0.523,4.137,0.873
					c-0.105,0.498-0.155,0.748-0.256,1.246c-1.517-0.308-2.274-0.462-3.791-0.771c-0.311-0.063-0.591-0.008-0.838,0.164
					c-0.247,0.173-0.403,0.423-0.467,0.753c-0.084,0.428,0.016,0.831,0.299,1.205c0.283,0.374,0.667,0.606,1.151,0.696
					c1.253,0.233,1.88,0.349,3.134,0.582C263.263,267.308,263.216,267.557,263.128,268.051z"/>
				<path fill="#434343" d="M257.17,259.345c0.116-0.52,0.175-0.779,0.295-1.298c0.664,0.154,0.996,0.231,1.66,0.385
					c0.118-0.508,0.177-0.762,0.299-1.269c0.439,0.105,0.659,0.158,1.098,0.263c-0.121,0.504-0.179,0.756-0.296,1.261
					c1.842,0.427,2.761,0.64,4.603,1.067c-0.115,0.496-0.171,0.746-0.283,1.243c-1.845-0.413-2.768-0.62-4.613-1.033
					c-0.09,0.402-0.134,0.604-0.222,1.006c-0.447-0.097-0.67-0.146-1.117-0.243c0.088-0.405,0.133-0.608,0.224-1.013
					C258.158,259.566,257.829,259.493,257.17,259.345z"/>
			</g>
		</g>
	</g>
</g>
<g id="Plan">
	<g>
		<g>
			<path fill="#FFB81C" stroke="#FFFFFF" stroke-width="4" stroke-miterlimit="10" d="M516.42,537.809
				c66.215,0,125.58-26.891,168.58-70.346v-0.002L516.367,298.598L347.545,467.612c0.034,0.032-0.159,0.067-0.125,0.1
				C390.727,511.02,450.333,537.809,516.42,537.809z"/>
			<path fill="#FFB81C" stroke="#FFFFFF" stroke-width="4" stroke-miterlimit="10" d="M516.61,579.147
				c77.778,0,146.39-31.588,198.39-82.633c0,0,0,0,0-0.002L684.578,466.4c-43.591,43.343-102.645,70.155-168.76,70.155
				c-65.709,0-125.141-26.489-168.388-69.361l-29.508,29.497c0.04,0.037-0.03,0.077,0.01,0.116
				C368.805,547.682,438.978,579.147,516.61,579.147z"/>
		</g>
		<rect x="438.789" y="440.794" fill="none" width="154.622" height="51.212"/>
		<text transform="matrix(1 0 0 1 477.8872 461.6924)" fill="#FFFFFF" font-family="'Yellowtail'" font-size="28.5516">PLAN</text>
		<g>
			<g>
				<path fill="#FFFFFF" d="M441.26,541.741c-0.157,0.537-0.237,0.806-0.394,1.343c-0.831-0.74-1.644-1.232-2.45-1.478
					c-1.034-0.314-2.004-0.261-2.917,0.163s-1.523,1.104-1.823,2.044c-0.306,0.959-0.194,1.877,0.343,2.751
					c0.537,0.875,1.367,1.487,2.486,1.826c0.812,0.246,1.746,0.264,2.796,0.043c-0.159,0.543-0.237,0.812-0.396,1.354
					c-0.953,0.175-1.919,0.117-2.889-0.178c-1.421-0.432-2.495-1.266-3.207-2.488c-0.712-1.222-0.853-2.471-0.439-3.743
					c0.406-1.25,1.237-2.162,2.48-2.748c1.244-0.587,2.531-0.673,3.88-0.263C439.597,540.632,440.44,541.087,441.26,541.741z"/>
				<path fill="#FFFFFF" d="M446.716,546.255c0.494,0.132,0.74,0.198,1.234,0.327c-0.593,2.267-0.889,3.397-1.482,5.663
					c-0.505-0.132-0.758-0.198-1.262-0.333c0.12-0.45,0.18-0.677,0.3-1.127c-0.839,0.691-1.718,0.917-2.625,0.667
					c-0.787-0.217-1.376-0.699-1.766-1.439c-0.39-0.74-0.462-1.524-0.223-2.357c0.226-0.787,0.702-1.396,1.42-1.828
					c0.718-0.434,1.443-0.548,2.185-0.343c0.458,0.126,0.859,0.367,1.205,0.721s0.582,0.752,0.706,1.201
					C446.531,546.945,446.593,546.716,446.716,546.255z M446.127,549.147c0.137-0.517,0.063-1.012-0.225-1.483
					c-0.287-0.472-0.699-0.778-1.235-0.926c-0.522-0.144-1.027-0.087-1.519,0.169s-0.809,0.628-0.948,1.119
					c-0.15,0.533-0.088,1.04,0.192,1.521s0.695,0.8,1.244,0.95c0.544,0.149,1.065,0.086,1.555-0.182
					C445.681,550.049,445.991,549.66,446.127,549.147z"/>
				<path fill="#FFFFFF" d="M451.186,547.407c-0.116,0.468-0.175,0.702-0.292,1.171c0.393-0.399,0.747-0.673,1.062-0.817
					c0.315-0.144,0.683-0.163,1.105-0.061c0.119,0.028,0.283,0.095,0.493,0.203c-0.266,0.444-0.398,0.669-0.666,1.112
					c-0.228-0.104-0.381-0.167-0.457-0.186c-0.42-0.102-0.807-0.047-1.161,0.166c-0.354,0.213-0.582,0.53-0.687,0.952
					c-0.313,1.26-0.47,1.886-0.783,3.146c-0.506-0.126-0.76-0.188-1.265-0.316c0.576-2.271,0.863-3.402,1.439-5.673
					C450.459,547.228,450.702,547.287,451.186,547.407z"/>
				<path fill="#FFFFFF" d="M459.899,552.66c-2.04-0.432-3.059-0.657-5.093-1.128c-0.025,0.611,0.13,1.096,0.463,1.456
					c0.333,0.359,0.731,0.592,1.197,0.696c0.718,0.16,1.384,0.009,1.992-0.455c0.311,0.347,0.466,0.519,0.78,0.864
					c-0.877,0.708-1.904,0.938-3.073,0.676c-0.897-0.2-1.582-0.665-2.048-1.386c-0.466-0.72-0.594-1.512-0.391-2.374
					c0.19-0.805,0.656-1.436,1.392-1.889c0.736-0.452,1.533-0.579,2.396-0.386c0.847,0.189,1.507,0.646,1.985,1.381
					S460.113,551.7,459.899,552.66z M455.16,550.601c1.451,0.335,2.178,0.497,3.632,0.812c-0.233-0.874-0.741-1.396-1.525-1.571
					C456.41,549.65,455.71,549.901,455.16,550.601z"/>
				<path fill="#FFFFFF" d="M467.336,554.126c-2.049-0.375-3.073-0.573-5.116-0.987c-0.009,0.612,0.158,1.096,0.5,1.447
					c0.342,0.35,0.747,0.569,1.215,0.66c0.721,0.141,1.382-0.028,1.976-0.509c0.32,0.338,0.48,0.504,0.803,0.841
					c-0.856,0.732-1.877,0.988-3.051,0.76c-0.901-0.176-1.596-0.62-2.081-1.328c-0.485-0.707-0.635-1.496-0.455-2.363
					c0.168-0.811,0.616-1.451,1.339-1.925c0.723-0.473,1.514-0.621,2.38-0.452c0.851,0.166,1.522,0.605,2.02,1.326
					S467.523,553.16,467.336,554.126z M462.546,552.199c1.458,0.295,2.187,0.437,3.647,0.711c-0.257-0.867-0.777-1.374-1.564-1.527
					C463.769,551.215,463.076,551.485,462.546,552.199z"/>
				<path fill="#FFFFFF" d="M470.74,551.516c-0.082,0.476-0.123,0.712-0.205,1.188c0.361-0.428,0.694-0.724,0.997-0.892
					c0.303-0.167,0.667-0.216,1.095-0.146c0.12,0.02,0.287,0.078,0.503,0.171c-0.232,0.463-0.349,0.695-0.582,1.157
					c-0.234-0.086-0.39-0.139-0.467-0.151c-0.425-0.07-0.804,0.011-1.141,0.249c-0.336,0.238-0.542,0.574-0.615,1.003
					c-0.22,1.279-0.33,1.917-0.55,3.196c-0.512-0.088-0.768-0.132-1.279-0.223c0.408-2.307,0.612-3.461,1.02-5.768
					C470.006,551.388,470.25,551.432,470.74,551.516z"/>
				<path fill="#FFFFFF" d="M482.184,554.205c0.667,0.894,1.002,1.335,1.68,2.225c0.475-0.394,0.711-0.59,1.183-0.985
					c0.323,0.353,0.486,0.529,0.811,0.881c-0.498,0.428-0.749,0.641-1.251,1.066c0.694,0.892,1.045,1.337,1.751,2.225
					c-0.674-0.074-1.011-0.116-1.685-0.194c-0.396-0.502-0.593-0.752-0.986-1.255c-1.172,0.842-2.272,1.195-3.282,1.062
					c-0.867-0.114-1.582-0.474-2.139-1.075c-0.556-0.602-0.782-1.255-0.681-1.958c0.076-0.525,0.277-0.937,0.602-1.236
					c0.325-0.301,2.022-0.975,2.108-1.23c0.015-0.044-0.137-0.262-0.189-0.349c-0.348-0.582-0.548-1.003-0.593-1.26
					c-0.044-0.258-0.054-0.483-0.027-0.676c0.072-0.52,0.353-0.965,0.836-1.337c0.483-0.373,1.078-0.512,1.787-0.419
					c0.619,0.081,1.119,0.354,1.502,0.82c0.383,0.468,0.54,0.993,0.468,1.581C483.978,552.937,483.35,553.647,482.184,554.205z
					 M482.948,557.196c-0.767-1.002-1.147-1.506-1.899-2.513c-0.892,0.407-1.468,0.722-1.723,0.95
					c-0.254,0.228-0.401,0.473-0.438,0.734c-0.055,0.394,0.082,0.756,0.408,1.09c0.326,0.333,0.746,0.535,1.262,0.604
					c0.388,0.051,0.762,0.007,1.122-0.135C482.039,557.784,482.463,557.542,482.948,557.196z M481.44,553.238
					c0.182,0.044,0.812-0.436,1.052-0.629c0.24-0.193,0.376-0.416,0.407-0.665c0.036-0.287-0.034-0.53-0.21-0.729
					c-0.177-0.2-0.436-0.319-0.775-0.363c-0.315-0.041-0.586,0.008-0.812,0.149c-0.226,0.143-0.356,0.342-0.391,0.601
					C480.661,551.977,481.158,553.17,481.44,553.238z"/>
				<path fill="#FFFFFF" d="M496.172,551.119c1.436,3.879,2.185,5.813,3.742,9.673c-0.542-0.033-0.812-0.05-1.354-0.086
					c-0.378-0.952-0.566-1.427-0.937-2.38c-1.592-0.111-2.387-0.174-3.978-0.309c-0.508,0.886-0.764,1.326-1.279,2.21
					c-0.537-0.048-0.807-0.071-1.343-0.121C493.142,556.531,494.173,554.732,496.172,551.119z M495.953,553.933
					c-0.69,1.241-1.039,1.86-1.743,3.097c1.201,0.1,1.801,0.148,3.003,0.234C496.701,555.934,496.45,555.266,495.953,553.933z"/>
				<path fill="#FFFFFF" d="M505.647,559.292c-0.023,0.564-0.033,0.851-0.056,1.415c-0.673,0.332-1.322,0.483-1.941,0.454
					c-0.848-0.04-1.575-0.384-2.175-1.026c-0.601-0.642-0.875-1.365-0.827-2.164c0.054-0.906,0.411-1.637,1.067-2.2
					c0.655-0.563,1.449-0.823,2.384-0.779c0.557,0.026,1.125,0.19,1.705,0.499c-0.022,0.551-0.035,0.829-0.058,1.38
					c-0.623-0.423-1.215-0.65-1.785-0.678c-0.525-0.024-0.994,0.134-1.408,0.473c-0.414,0.338-0.635,0.744-0.661,1.226
					c-0.03,0.544,0.131,1.015,0.485,1.406c0.355,0.391,0.804,0.598,1.347,0.623C504.276,559.946,504.919,559.736,505.647,559.292z"
					/>
				<path fill="#FFFFFF" d="M512.104,555.413c0.507,0.009,0.759,0.013,1.266,0.02c-0.03,2.342-0.046,3.514-0.076,5.855
					c-0.518-0.007-0.776-0.011-1.294-0.02c0.008-0.466,0.012-0.699,0.021-1.165c-0.643,0.874-1.435,1.303-2.368,1.278
					c-0.809-0.021-1.491-0.348-2.041-0.972c-0.551-0.624-0.807-1.368-0.775-2.233c0.03-0.817,0.341-1.521,0.928-2.114
					c0.587-0.594,1.26-0.88,2.021-0.86c0.47,0.013,0.912,0.147,1.329,0.407s0.74,0.59,0.967,0.996
					C512.089,556.129,512.095,555.89,512.104,555.413z M512.226,558.36c0.009-0.534-0.182-0.993-0.571-1.382
					c-0.389-0.389-0.858-0.588-1.409-0.602c-0.537-0.013-1.009,0.162-1.421,0.529s-0.627,0.805-0.644,1.315
					c-0.018,0.554,0.164,1.029,0.547,1.429s0.857,0.608,1.421,0.622c0.559,0.014,1.046-0.173,1.453-0.551
					C512.011,559.345,512.217,558.891,512.226,558.36z"/>
				<path fill="#FFFFFF" d="M520.264,552.077c0.494-0.006,0.742-0.009,1.236-0.018c0.063,3.685,0.094,5.526,0.157,9.211
					c-0.506,0.009-0.758,0.013-1.264,0.02c-0.006-0.488-0.008-0.731-0.014-1.22c-0.597,0.931-1.395,1.401-2.383,1.405
					c-0.8,0.003-1.486-0.306-2.054-0.918c-0.567-0.613-0.844-1.347-0.838-2.203c0.006-0.837,0.295-1.556,0.867-2.157
					s1.249-0.902,2.036-0.905c0.471-0.002,0.913,0.122,1.324,0.374s0.737,0.583,0.987,0.992
					C520.298,554.827,520.287,553.908,520.264,552.077z M520.49,558.35c-0.007-0.525-0.213-0.974-0.613-1.355
					s-0.872-0.571-1.418-0.568c-0.566,0.003-1.045,0.19-1.438,0.566s-0.593,0.837-0.594,1.381c-0.001,0.521,0.202,0.973,0.607,1.363
					s0.877,0.589,1.417,0.586c0.574-0.003,1.061-0.199,1.457-0.582C520.304,559.358,520.497,558.894,520.49,558.35z"/>
				<path fill="#FFFFFF" d="M529.637,558.328c-2.072,0.096-3.109,0.133-5.183,0.189c0.129,0.599,0.4,1.03,0.811,1.295
					c0.41,0.264,0.851,0.389,1.324,0.372c0.73-0.025,1.334-0.339,1.802-0.94c0.387,0.257,0.583,0.383,0.971,0.639
					c-0.666,0.906-1.602,1.384-2.791,1.425c-0.913,0.032-1.686-0.245-2.314-0.825c-0.629-0.579-0.949-1.311-0.97-2.196
					c-0.02-0.827,0.269-1.554,0.863-2.178c0.595-0.623,1.328-0.95,2.206-0.98c0.862-0.03,1.615,0.251,2.26,0.841
					S529.602,557.346,529.637,558.328z M524.561,557.529c1.479-0.041,2.219-0.067,3.697-0.129c-0.444-0.787-1.065-1.164-1.863-1.137
					C525.523,556.294,524.915,556.715,524.561,557.529z"/>
				<path fill="#FFFFFF" d="M531.127,560.946c-0.12-2.339-0.178-3.509-0.298-5.848c0.5-0.025,0.751-0.038,1.251-0.066
					c0.021,0.36,0.029,0.54,0.05,0.9c0.276-0.385,0.543-0.672,0.802-0.858c0.259-0.186,0.564-0.288,0.913-0.31
					c0.455-0.028,0.816,0.046,1.089,0.223c0.271,0.176,0.722,0.882,0.722,0.882c0.07,0.004,0.571-0.777,0.852-0.991
					c0.28-0.215,0.616-0.338,1.005-0.367c0.477-0.036,0.897,0.104,1.271,0.423s0.582,0.717,0.621,1.192
					c0.141,1.698,0.209,2.546,0.35,4.244c-0.517,0.043-0.775,0.063-1.292,0.104c-0.122-1.571-0.18-2.354-0.302-3.925
					c-0.05-0.646-0.408-0.945-1.066-0.896c-0.375,0.027-0.677,0.216-0.915,0.564s-0.344,0.764-0.311,1.25
					c0.088,1.271,0.131,1.911,0.219,3.183c-0.517,0.036-0.773,0.053-1.29,0.086c-0.098-1.508-0.145-2.261-0.242-3.769
					c-0.05-0.765-0.398-1.125-1.045-1.086c-0.384,0.023-0.702,0.199-0.952,0.526c-0.25,0.326-0.362,0.72-0.337,1.178
					c0.074,1.318,0.111,1.975,0.185,3.293C531.895,560.906,531.638,560.92,531.127,560.946z"/>
				<path fill="#FFFFFF" d="M540.469,552.503c-0.022-0.255,0.055-0.481,0.23-0.686c0.175-0.203,0.395-0.319,0.658-0.344
					c0.259-0.023,0.491,0.051,0.698,0.219c0.206,0.169,0.321,0.378,0.346,0.633c0.024,0.26-0.05,0.49-0.223,0.691
					c-0.173,0.202-0.389,0.316-0.649,0.34c-0.266,0.024-0.504-0.048-0.713-0.215S540.491,552.763,540.469,552.503z M540.994,554.388
					c0.5-0.044,0.75-0.066,1.249-0.113c0.218,2.332,0.324,3.496,0.543,5.828c-0.51,0.048-0.767,0.072-1.276,0.117
					C541.303,557.887,541.201,556.721,540.994,554.388z"/>
				<path fill="#FFFFFF" d="M549.09,557.64c0.066,0.562,0.098,0.846,0.163,1.407c-0.613,0.434-1.229,0.684-1.846,0.752
					c-0.845,0.093-1.621-0.133-2.315-0.674c-0.694-0.54-1.078-1.21-1.156-2.006c-0.089-0.904,0.151-1.682,0.711-2.341
					s1.303-1.038,2.234-1.142c0.555-0.062,1.141,0.012,1.764,0.225c0.064,0.547,0.096,0.823,0.16,1.37
					c-0.683-0.32-1.305-0.45-1.872-0.388c-0.523,0.058-0.961,0.286-1.317,0.687c-0.356,0.399-0.512,0.836-0.462,1.315
					c0.056,0.542,0.287,0.979,0.699,1.31c0.412,0.33,0.892,0.464,1.433,0.404C547.836,558.499,548.439,558.193,549.09,557.64z"/>
				<path fill="#FFFFFF" d="M553.907,549.711c0.731-0.102,1.098-0.155,1.829-0.262c1.032-0.15,1.903-0.038,2.611,0.341
					c0.708,0.378,1.125,0.946,1.246,1.708c0.122,0.766-0.114,1.465-0.713,2.089c-0.599,0.625-1.596,1.033-2.986,1.218
					c0.212,1.473,0.313,2.212,0.525,3.685c-0.508,0.073-0.761,0.108-1.269,0.179C554.653,555.085,554.404,553.294,553.907,549.711z
					 M555.292,550.605c0.18,1.254,0.269,1.88,0.448,3.134c0.946-0.146,1.63-0.381,2.048-0.701c0.418-0.319,0.584-0.755,0.499-1.307
					c-0.064-0.416-0.292-0.749-0.681-1.001C557.219,550.479,556.448,550.439,555.292,550.605z"/>
				<path fill="#FFFFFF" d="M560.943,548.468c0.495-0.082,0.745-0.123,1.24-0.208c0.62,3.633,0.928,5.447,1.549,9.079
					c-0.512,0.088-0.767,0.132-1.279,0.217C561.849,553.92,561.547,552.104,560.943,548.468z"/>
				<path fill="#FFFFFF" d="M569.55,550.316c0.499-0.099,0.751-0.147,1.25-0.248c0.464,2.296,0.692,3.442,1.156,5.738
					c-0.51,0.103-0.763,0.153-1.273,0.254c-0.09-0.457-0.134-0.685-0.224-1.142c-0.447,0.99-1.136,1.576-2.057,1.75
					c-0.799,0.15-1.536-0.025-2.208-0.52c-0.673-0.494-1.081-1.167-1.232-2.02c-0.143-0.806,0.013-1.56,0.464-2.264
					c0.451-0.705,1.051-1.126,1.803-1.268c0.465-0.087,0.928-0.049,1.393,0.117s0.852,0.423,1.16,0.772
					C569.689,551.021,569.642,550.784,569.55,550.316z M570.293,553.172c-0.104-0.524-0.388-0.934-0.852-1.231
					s-0.966-0.393-1.51-0.289c-0.53,0.101-0.957,0.37-1.284,0.815s-0.446,0.92-0.354,1.423c0.1,0.545,0.376,0.972,0.837,1.281
					s0.97,0.411,1.526,0.306c0.552-0.104,0.993-0.386,1.313-0.842C570.291,554.18,570.396,553.692,570.293,553.172z"/>
				<path fill="#FFFFFF" d="M573.635,555.461c-0.478-2.293-0.716-3.438-1.193-5.73c0.487-0.102,0.73-0.152,1.218-0.256
					c0.081,0.38,0.119,0.569,0.2,0.949c0.277-0.461,0.542-0.812,0.794-1.053c0.253-0.24,0.561-0.399,0.918-0.479
					c0.533-0.118,1.026-0.05,1.482,0.205c0.456,0.256,0.74,0.624,0.85,1.104c0.377,1.65,0.566,2.475,0.943,4.124
					c-0.508,0.116-0.762,0.172-1.271,0.285c-0.338-1.51-0.506-2.263-0.844-3.772c-0.069-0.31-0.231-0.543-0.484-0.7
					c-0.254-0.157-0.539-0.201-0.859-0.131c-0.416,0.091-0.738,0.34-0.968,0.745c-0.229,0.406-0.295,0.847-0.192,1.328
					c0.266,1.247,0.4,1.871,0.666,3.117C574.392,555.305,574.139,555.355,573.635,555.461z"/>
				<path fill="#FFFFFF" d="M580.188,554.015c-0.533-2.281-0.798-3.42-1.331-5.701c0.485-0.113,0.728-0.171,1.212-0.286
					c0.09,0.378,0.134,0.567,0.224,0.945c0.267-0.467,0.523-0.825,0.771-1.073c0.247-0.247,0.551-0.413,0.906-0.501
					c0.531-0.131,1.026-0.074,1.489,0.17c0.463,0.245,0.757,0.604,0.878,1.081c0.417,1.641,0.623,2.459,1.04,4.099
					c-0.506,0.129-0.758,0.194-1.264,0.32c-0.374-1.502-0.562-2.251-0.936-3.753c-0.077-0.308-0.244-0.538-0.501-0.688
					c-0.258-0.15-0.544-0.188-0.863-0.109c-0.414,0.102-0.731,0.357-0.951,0.768c-0.219,0.411-0.273,0.854-0.159,1.332
					c0.296,1.24,0.444,1.86,0.74,3.1C580.941,553.836,580.689,553.897,580.188,554.015z"/>
				<path fill="#FFFFFF" d="M584.76,544.877c-0.064-0.248-0.025-0.486,0.115-0.717c0.141-0.229,0.338-0.377,0.596-0.444
					c0.253-0.066,0.498-0.036,0.731,0.095c0.233,0.132,0.381,0.322,0.447,0.569c0.067,0.252,0.032,0.492-0.106,0.72
					s-0.335,0.376-0.59,0.443c-0.26,0.068-0.508,0.036-0.742-0.094C584.976,545.319,584.825,545.129,584.76,544.877z
					 M585.593,546.648c0.489-0.127,0.734-0.192,1.223-0.322c0.602,2.264,0.899,3.396,1.501,5.66
					c-0.499,0.133-0.748,0.196-1.247,0.326C586.479,550.046,586.184,548.915,585.593,546.648z"/>
				<path fill="#FFFFFF" d="M589.969,551.543c-0.615-2.26-0.922-3.391-1.537-5.651c0.482-0.131,0.721-0.196,1.202-0.33
					c0.104,0.375,0.156,0.56,0.26,0.935c0.251-0.477,0.495-0.844,0.733-1.101c0.238-0.256,0.533-0.432,0.887-0.532
					c0.527-0.15,1.027-0.112,1.499,0.114c0.473,0.228,0.779,0.575,0.918,1.048c0.476,1.624,0.715,2.433,1.19,4.057
					c-0.502,0.147-0.755,0.223-1.258,0.367c-0.429-1.487-0.642-2.229-1.07-3.716c-0.088-0.305-0.262-0.53-0.524-0.671
					c-0.264-0.141-0.556-0.166-0.872-0.076c-0.411,0.117-0.716,0.384-0.922,0.802c-0.205,0.419-0.246,0.866-0.114,1.341
					c0.341,1.229,0.509,1.841,0.85,3.069C590.713,551.336,590.467,551.407,589.969,551.543z"/>
				<path fill="#FFFFFF" d="M599.831,542.52c0.478-0.152,0.714-0.231,1.19-0.387c0.694,2.139,1.045,3.207,1.739,5.346
					c0.256,0.787,0.182,1.553-0.221,2.291s-1.017,1.238-1.844,1.497c-0.629,0.196-1.259,0.214-1.883,0.056s-1.156-0.527-1.598-1.106
					c0.52-0.156,0.78-0.234,1.299-0.394c0.575,0.488,1.211,0.622,1.904,0.405c0.472-0.147,0.824-0.433,1.055-0.856
					c0.229-0.424,0.272-0.859,0.13-1.306c-0.135-0.422-0.201-0.631-0.336-1.053c-0.336,1.017-0.969,1.671-1.889,1.957
					c-0.757,0.235-1.511,0.143-2.252-0.278c-0.74-0.422-1.227-1.037-1.468-1.845c-0.241-0.807-0.178-1.579,0.188-2.317
					c0.365-0.738,0.917-1.221,1.657-1.45c0.956-0.297,1.853-0.094,2.7,0.613C600.055,543.223,599.981,542.99,599.831,542.52z
					 M600.887,545.239c-0.168-0.522-0.496-0.896-0.986-1.128c-0.491-0.231-1.015-0.259-1.575-0.084
					c-0.513,0.16-0.909,0.481-1.188,0.969c-0.279,0.486-0.348,0.97-0.201,1.45c0.158,0.521,0.492,0.907,0.998,1.163
					s1.028,0.304,1.568,0.135c0.549-0.171,0.96-0.504,1.231-0.992C601.005,546.263,601.053,545.757,600.887,545.239z"/>
			</g>
		</g>
	</g>
</g>
<g id="Explore">
	<g>
		<g>
			<path fill="#434343" stroke="#FFFFFF" stroke-width="4" stroke-miterlimit="10" d="M755.845,298.778
				C755.845,232.565,728.954,174,685.5,130c0,0,0,0-0.002,0L516.634,298.831l169.016,168.921c0.03-0.033,0.065,0.11,0.1,0.076
				C729.058,424.521,755.845,364.866,755.845,298.778z"/>
			<path fill="#434343" stroke="#FFFFFF" stroke-width="4" stroke-miterlimit="10" d="M797.79,298.074
				c0-77.778-31.588-148.074-82.633-198.074c0,0,0,0-0.003,0l-30.111,30.105c43.34,43.592,70.155,102.486,70.155,168.601
				c0,65.71-26.489,125.062-69.361,168.31l29.497,29.468c0.037-0.039,0.076,0.168,0.115,0.129
				C766.322,445.74,797.79,375.705,797.79,298.074z"/>
		</g>
		<rect x="582.362" y="283.009" fill="none" width="154.621" height="51.213"/>
		<text transform="matrix(1 0 0 1 593.9258 303.9072)" fill="#FFFFFF" font-family="'Yellowtail'" font-size="28.5516">EXPLORE</text>
		<g>
			<g>
				<path fill="#FFFFFF" d="M776.896,249.007c-0.548,0.112-0.821,0.169-1.369,0.281c0.262-1.104,0.298-2.084,0.114-2.932
					c-0.236-1.087-0.774-1.932-1.605-2.52c-0.831-0.589-1.728-0.766-2.689-0.541c-0.98,0.229-1.708,0.796-2.195,1.688
					c-0.486,0.893-0.607,1.89-0.366,3.003c0.175,0.809,0.604,1.612,1.286,2.419c-0.554,0.113-0.831,0.172-1.385,0.285
					c-0.595-0.735-0.997-1.578-1.204-2.534c-0.304-1.4-0.11-2.698,0.58-3.91c0.69-1.213,1.679-1.983,2.979-2.296
					c1.277-0.307,2.492-0.072,3.64,0.724c1.146,0.796,1.885,1.918,2.196,3.352C777.077,246.947,777.083,247.943,776.896,249.007z"/>
				<path fill="#FFFFFF" d="M775.314,256.055c0.09,0.51,0.135,0.764,0.222,1.274c-2.309,0.396-3.461,0.594-5.77,0.99
					c-0.085-0.498-0.13-0.747-0.218-1.244c0.458-0.081,0.688-0.122,1.146-0.203c-0.979-0.455-1.548-1.124-1.715-2.018
					c-0.145-0.775,0.025-1.492,0.512-2.16s1.151-1.087,2-1.256c0.803-0.16,1.561-0.021,2.272,0.426
					c0.712,0.449,1.143,1.06,1.286,1.826c0.089,0.473,0.049,0.946-0.121,1.414c-0.17,0.469-0.435,0.854-0.789,1.158
					C774.61,256.179,774.845,256.138,775.314,256.055z M772.445,256.741c0.526-0.093,0.943-0.369,1.248-0.829
					s0.406-0.967,0.305-1.517c-0.099-0.535-0.373-0.969-0.82-1.297c-0.447-0.327-0.924-0.439-1.426-0.342
					c-0.544,0.105-0.969,0.388-1.276,0.844s-0.411,0.955-0.311,1.501c0.1,0.541,0.374,0.971,0.823,1.292
					S771.924,256.833,772.445,256.741z"/>
				<path fill="#FFFFFF" d="M776.086,260.667c-0.477,0.075-0.717,0.111-1.193,0.186c0.521,0.208,0.909,0.433,1.164,0.671
					c0.254,0.239,0.414,0.578,0.479,1.014c0.019,0.123,0.018,0.304-0.005,0.542c-0.512-0.084-0.771-0.127-1.282-0.21
					c0.011-0.25,0.013-0.414,0.001-0.491c-0.064-0.43-0.265-0.769-0.597-1.014c-0.333-0.246-0.715-0.333-1.146-0.266
					c-1.281,0.201-1.922,0.301-3.203,0.502c-0.078-0.499-0.118-0.747-0.199-1.245c2.312-0.375,3.467-0.563,5.779-0.939
					C775.966,259.918,776.008,260.168,776.086,260.667z"/>
				<path fill="#FFFFFF" d="M774.258,270.687c-0.238-2.049-0.367-3.073-0.649-5.118c-0.579,0.194-0.979,0.505-1.2,0.935
					s-0.304,0.875-0.244,1.336c0.092,0.712,0.455,1.272,1.092,1.685c-0.226,0.401-0.339,0.602-0.566,1.001
					c-0.95-0.587-1.496-1.45-1.645-2.599c-0.114-0.881,0.082-1.657,0.59-2.335s1.196-1.082,2.072-1.207
					c0.82-0.117,1.575,0.085,2.263,0.615s1.093,1.244,1.208,2.133c0.113,0.874-0.102,1.662-0.641,2.358
					C775.998,270.187,775.236,270.583,774.258,270.687z M774.604,265.565c0.202,1.47,0.295,2.205,0.475,3.677
					c0.748-0.506,1.075-1.163,0.972-1.964C775.938,266.402,775.452,265.83,774.604,265.565z"/>
				<path fill="#FFFFFF" d="M775.006,278.148c-0.174-2.054-0.271-3.081-0.489-5.131c-0.585,0.176-0.993,0.475-1.228,0.896
					s-0.33,0.864-0.285,1.327c0.069,0.714,0.414,1.285,1.037,1.717c-0.238,0.394-0.356,0.589-0.596,0.981
					c-0.932-0.616-1.449-1.495-1.562-2.647c-0.087-0.884,0.133-1.652,0.661-2.313s1.231-1.043,2.111-1.141
					c0.823-0.091,1.571,0.134,2.242,0.685s1.05,1.277,1.137,2.168c0.086,0.876-0.153,1.658-0.714,2.336
					C776.76,277.704,775.987,278.075,775.006,278.148z M775.512,273.043c0.156,1.474,0.229,2.211,0.361,3.688
					c0.764-0.482,1.111-1.128,1.032-1.932C776.819,273.921,776.352,273.334,775.512,273.043z"/>
				<path fill="#FFFFFF" d="M778.393,280.794c-0.481,0.035-0.724,0.053-1.205,0.087c0.502,0.25,0.87,0.504,1.104,0.763
					c0.233,0.259,0.365,0.608,0.394,1.047c0.008,0.123-0.011,0.303-0.053,0.539c-0.503-0.126-0.753-0.189-1.256-0.314
					c0.031-0.248,0.042-0.41,0.037-0.488c-0.028-0.433-0.197-0.787-0.508-1.058c-0.311-0.271-0.685-0.391-1.119-0.359
					c-1.294,0.094-1.94,0.141-3.234,0.235c-0.036-0.502-0.055-0.753-0.094-1.255c2.336-0.181,3.502-0.271,5.838-0.453
					C778.336,280.041,778.356,280.292,778.393,280.794z"/>
				<path fill="#FFFFFF" d="M782.015,288.48c0.085,2.118,0.117,3.179,0.156,5.298c-0.494,0.009-0.739,0.014-1.233,0.023
					c-0.029-1.595-0.052-2.392-0.107-3.986c-0.902,0.031-1.354,0.046-2.256,0.078c0.055,1.58,0.076,2.37,0.105,3.95
					c-0.488,0.009-0.732,0.013-1.221,0.022c-0.029-1.572-0.051-2.359-0.105-3.931c-1.242,0.043-1.865,0.066-3.107,0.109
					c0.055,1.551,0.077,2.328,0.105,3.879c-0.488,0.009-0.732,0.014-1.221,0.023c-0.038-2.042-0.068-3.062-0.15-5.102
					C776.595,288.699,778.399,288.624,782.015,288.48z"/>
				<path fill="#FFFFFF" d="M779.008,295.237c0.008,0.625,0.012,0.938,0.016,1.563c-0.663,0.549-0.997,0.821-1.663,1.363
					c0.667,0.529,0.999,0.797,1.663,1.333c-0.003,0.62-0.005,0.93-0.012,1.55c-1.048-0.863-1.574-1.291-2.629-2.135
					c-1.287,1.015-1.935,1.515-3.232,2.503c0.008-0.599,0.012-0.899,0.016-1.498c0.9-0.698,1.348-1.051,2.243-1.763
					c-0.896-0.717-1.346-1.071-2.247-1.774c-0.005-0.594-0.007-0.892-0.016-1.486c1.304,0.988,1.951,1.489,3.244,2.504
					C777.44,296.542,777.965,296.111,779.008,295.237z"/>
				<path fill="#FFFFFF" d="M778.955,304.269c-0.472-0.012-0.707-0.018-1.179-0.029c0.879,0.635,1.306,1.438,1.272,2.399
					c-0.027,0.789-0.356,1.46-0.983,2.002s-1.357,0.789-2.194,0.75c-0.847-0.039-1.564-0.356-2.155-0.946
					c-0.59-0.59-0.871-1.264-0.845-2.028c0.015-0.442,0.142-0.864,0.38-1.265c0.239-0.4,0.576-0.728,1.013-0.983
					c-1.563-0.038-2.347-0.057-3.91-0.095c0.012-0.497,0.018-0.746,0.027-1.243c3.439,0.066,5.162,0.099,8.604,0.165
					C778.975,303.505,778.968,303.759,778.955,304.269z M775.928,308.061c0.516,0.021,0.975-0.16,1.375-0.547
					c0.4-0.386,0.61-0.854,0.628-1.399c0.018-0.554-0.159-1.04-0.532-1.454s-0.821-0.626-1.342-0.638
					c-0.535-0.013-1.002,0.174-1.404,0.559c-0.402,0.385-0.612,0.845-0.63,1.381c-0.018,0.555,0.16,1.036,0.532,1.447
					C774.928,307.821,775.384,308.039,775.928,308.061z"/>
				<path fill="#FFFFFF" d="M782.03,311.542c-0.028,0.522-0.044,0.783-0.074,1.305c-3.679-0.218-5.519-0.326-9.196-0.542
					c0.029-0.502,0.043-0.752,0.07-1.255C776.51,311.247,778.35,311.343,782.03,311.542z"/>
				<path fill="#FFFFFF" d="M775.615,313.977c0.798,0.052,1.487,0.423,2.062,1.123s0.832,1.479,0.765,2.333
					c-0.069,0.877-0.442,1.619-1.11,2.218c-0.668,0.6-1.41,0.858-2.226,0.783c-0.82-0.076-1.515-0.459-2.083-1.144
					c-0.568-0.684-0.818-1.433-0.753-2.255c0.069-0.88,0.435-1.62,1.098-2.226C774.031,314.202,774.779,313.922,775.615,313.977z
					 M775.214,319.207c0.496,0.043,0.942-0.113,1.342-0.474c0.399-0.36,0.622-0.812,0.665-1.353
					c0.044-0.554-0.106-1.045-0.449-1.471c-0.342-0.426-0.771-0.657-1.287-0.693c-0.492-0.035-0.937,0.135-1.334,0.508
					s-0.616,0.827-0.658,1.362c-0.041,0.522,0.109,0.993,0.454,1.417C774.291,318.928,774.713,319.163,775.214,319.207z"/>
				<path fill="#FFFFFF" d="M777.72,323.506c-0.48-0.05-0.719-0.075-1.199-0.125c0.451,0.334,0.767,0.65,0.952,0.946
					c0.185,0.296,0.253,0.663,0.204,1.101c-0.014,0.123-0.062,0.296-0.145,0.521c-0.473-0.213-0.711-0.317-1.185-0.529
					c0.074-0.239,0.117-0.398,0.126-0.476c0.048-0.432-0.057-0.808-0.315-1.129c-0.259-0.322-0.604-0.505-1.038-0.55
					c-1.29-0.134-1.936-0.201-3.226-0.335c0.053-0.501,0.075-0.751,0.125-1.252c2.331,0.23,3.498,0.345,5.829,0.575
					C777.799,322.754,777.772,323.004,777.72,323.506z"/>
				<path fill="#FFFFFF" d="M776.675,332.077c-0.071,0.512-0.11,0.768-0.185,1.279c-2.317-0.338-3.477-0.506-5.794-0.843
					c0.072-0.499,0.107-0.749,0.178-1.248c0.461,0.064,0.694,0.096,1.155,0.161c-0.79-0.734-1.127-1.546-1.01-2.446
					c0.102-0.78,0.487-1.406,1.155-1.889c0.669-0.483,1.432-0.679,2.291-0.577c0.813,0.096,1.488,0.464,2.027,1.108
					c0.539,0.645,0.762,1.357,0.661,2.129c-0.062,0.477-0.249,0.911-0.555,1.303c-0.307,0.393-0.675,0.679-1.106,0.857
					C775.966,331.978,776.202,332.011,776.675,332.077z M773.731,331.843c0.529,0.075,1.013-0.06,1.444-0.402
					s0.686-0.793,0.759-1.346c0.071-0.539-0.058-1.034-0.382-1.483c-0.325-0.448-0.74-0.701-1.248-0.764
					c-0.55-0.068-1.042,0.07-1.476,0.407c-0.434,0.338-0.687,0.78-0.759,1.33c-0.072,0.544,0.056,1.037,0.384,1.481
					S773.207,331.769,773.731,331.843z"/>
				<path fill="#FFFFFF" d="M777.822,335.947c-0.08,0.515-0.121,0.771-0.204,1.286c-0.673-0.108-1.008-0.162-1.681-0.271
					c-0.081,0.505-0.121,0.758-0.205,1.263c-0.445-0.074-0.669-0.111-1.114-0.186c0.084-0.502,0.124-0.754,0.205-1.257
					c-1.866-0.3-2.8-0.45-4.666-0.751c0.08-0.499,0.12-0.748,0.197-1.247c1.868,0.291,2.802,0.437,4.67,0.727
					c0.062-0.401,0.094-0.601,0.154-1.001c0.452,0.068,0.68,0.101,1.132,0.169c-0.061,0.403-0.094,0.605-0.156,1.008
					C776.822,335.792,777.155,335.843,777.822,335.947z"/>
				<path fill="#FFFFFF" d="M777.479,339.437c0.252,0.043,0.451,0.176,0.602,0.405s0.203,0.481,0.155,0.754
					c-0.047,0.266-0.18,0.481-0.398,0.643c-0.219,0.163-0.454,0.221-0.705,0.176c-0.256-0.046-0.457-0.181-0.604-0.408
					c-0.147-0.226-0.199-0.473-0.153-0.737c0.047-0.27,0.181-0.487,0.396-0.653S777.223,339.393,777.479,339.437z M775.521,339.472
					c-0.087,0.504-0.132,0.756-0.221,1.26c-2.306-0.409-3.459-0.614-5.765-1.022c0.087-0.492,0.13-0.738,0.215-1.23
					C772.059,338.877,773.212,339.076,775.521,339.472z"/>
				<path fill="#FFFFFF" d="M772.162,341.771c0.786,0.145,1.43,0.597,1.919,1.361s0.65,1.571,0.483,2.415
					c-0.172,0.867-0.629,1.564-1.362,2.084c-0.734,0.521-1.501,0.691-2.302,0.521c-0.805-0.171-1.447-0.633-1.932-1.383
					c-0.484-0.749-0.646-1.524-0.485-2.336c0.172-0.869,0.62-1.563,1.351-2.091C770.563,341.814,771.339,341.62,772.162,341.771z
					 M771.15,346.941c0.487,0.101,0.951-0.004,1.391-0.317c0.438-0.312,0.712-0.738,0.817-1.271
					c0.108-0.547,0.017-1.054-0.273-1.519s-0.688-0.745-1.196-0.841c-0.484-0.092-0.947,0.026-1.386,0.352s-0.71,0.753-0.814,1.282
					c-0.103,0.516-0.009,1.002,0.284,1.465C770.266,346.555,770.658,346.84,771.15,346.941z"/>
				<path fill="#FFFFFF" d="M767.778,348.636c2.288,0.498,3.432,0.746,5.72,1.243c-0.107,0.495-0.161,0.742-0.271,1.237
					c-0.38-0.084-0.57-0.127-0.95-0.212c0.303,0.448,0.512,0.84,0.622,1.176c0.11,0.335,0.125,0.687,0.041,1.05
					c-0.126,0.543-0.409,0.967-0.841,1.27s-0.886,0.396-1.364,0.281c-1.645-0.395-2.469-0.592-4.113-0.987
					c0.118-0.493,0.18-0.74,0.295-1.233c1.506,0.354,2.258,0.531,3.764,0.884c0.309,0.072,0.587,0.028,0.839-0.134
					c0.251-0.163,0.415-0.406,0.489-0.729c0.097-0.42,0.009-0.821-0.262-1.201c-0.271-0.381-0.647-0.623-1.128-0.729
					c-1.244-0.277-1.866-0.417-3.11-0.694C767.616,349.368,767.672,349.125,767.778,348.636z"/>
			</g>
		</g>
	</g>
</g>
<g id="Know">
	<g>
		<g>
			<path fill="#782F40" stroke="#FFFFFF" stroke-width="4" stroke-miterlimit="10" d="M516.901,17.205
				C439.123,17.205,370,48.792,319,99.836c0,0,0,0,0,0.002l29.934,30.113c43.591-43.342,102.399-70.156,168.514-70.156
				c65.711,0,125.019,26.489,168.266,69.362l29.447-29.498c-0.039-0.037,0.244-0.078,0.205-0.117
				C664.492,48.671,594.533,17.205,516.901,17.205z"/>
			<path fill="#782F40" stroke="#FFFFFF" stroke-width="4" stroke-miterlimit="10" d="M516.674,58.989
				C450.462,58.989,391,85.878,348,129.334c0,0,0,0,0,0.001l168.727,168.864l168.871-169.015c-0.034-0.033,0.135-0.066,0.103-0.1
				C642.392,85.775,582.762,58.989,516.674,58.989z"/>
		</g>
		<rect x="439.597" y="129.413" fill="none" width="154.622" height="51.214"/>
		<text transform="matrix(1 0 0 1 475.5439 150.3115)" fill="#FFFFFF" font-family="'Yellowtail'" font-size="28.5516">KNOW</text>
		<g>
			<g>
				<path fill="#FFFFFF" d="M400.191,61.567c-0.231,0.503-0.346,0.753-0.574,1.256c-0.395-0.088-0.731-0.129-1.009-0.123
					s-0.613,0.126-1.007,0.359c-0.431,0.255-0.73,0.55-0.895,0.882c-0.165,0.332-0.165,0.634-0.001,0.905
					c0.141,0.234,0.381,0.371,0.721,0.412s0.853,0.003,1.539-0.112s1.239-0.169,1.658-0.165c0.419,0.005,0.793,0.063,1.123,0.173
					c0.33,0.11,0.616,0.264,0.857,0.458c0.241,0.194,0.439,0.43,0.599,0.709c0.374,0.652,0.432,1.358,0.18,2.115
					c-0.251,0.757-0.738,1.347-1.465,1.777c-0.709,0.419-1.441,0.615-2.198,0.588s-1.497-0.302-2.223-0.828
					c0.392-0.403,0.589-0.604,0.983-1.005c0.951,0.614,1.859,0.66,2.733,0.144c0.424-0.25,0.707-0.573,0.854-0.97
					c0.147-0.397,0.119-0.773-0.087-1.128c-0.123-0.212-0.322-0.381-0.596-0.508c-0.274-0.127-0.562-0.196-0.864-0.205
					c-0.303-0.008-0.749,0.041-1.338,0.15c-0.59,0.108-1.062,0.169-1.412,0.178c-0.35,0.009-0.68-0.032-0.995-0.121
					c-0.314-0.089-0.578-0.206-0.79-0.354c-0.211-0.148-0.387-0.336-0.527-0.566c-0.337-0.553-0.374-1.179-0.105-1.874
					c0.269-0.696,0.766-1.261,1.492-1.69c0.481-0.285,1.024-0.48,1.626-0.585S399.646,61.378,400.191,61.567z"/>
				<path fill="#FFFFFF" d="M410.045,62.24c-1.938,1.022-2.901,1.546-4.82,2.618c0.397,0.466,0.846,0.717,1.349,0.755
					c0.502,0.038,0.97-0.06,1.404-0.297c0.67-0.366,1.094-0.926,1.275-1.683c0.476,0.054,0.713,0.083,1.188,0.141
					c-0.242,1.119-0.897,1.965-1.978,2.555c-0.829,0.453-1.664,0.576-2.514,0.368c-0.849-0.208-1.493-0.693-1.929-1.463
					c-0.408-0.721-0.478-1.507-0.199-2.36s0.838-1.513,1.676-1.971c0.823-0.45,1.68-0.559,2.559-0.327S409.595,61.364,410.045,62.24
					z M404.866,63.929c1.38-0.77,2.073-1.148,3.463-1.893c-0.766-0.502-1.53-0.55-2.285-0.138
					C405.22,62.349,404.826,63.03,404.866,63.929z"/>
				<path fill="#FFFFFF" d="M408.589,55.642c0.494-0.256,0.74-0.383,1.235-0.636c1.675,3.282,2.512,4.923,4.188,8.206
					c-0.476,0.243-0.712,0.365-1.187,0.611C411.131,60.55,410.284,58.914,408.589,55.642z"/>
				<path fill="#FFFFFF" d="M415.22,52.439c0.216,0.451,0.323,0.676,0.539,1.126c-0.466-0.044-0.83-0.002-1.092,0.125
					c-0.219,0.106-0.355,0.262-0.408,0.466c-0.053,0.204-0.017,0.435,0.109,0.693c0.257,0.526,0.386,0.791,0.643,1.317
					c0.646-0.316,0.97-0.473,1.618-0.783c0.195,0.407,0.294,0.611,0.489,1.019c-0.645,0.309-0.968,0.465-1.612,0.779
					c0.83,1.699,1.245,2.549,2.075,4.248c-0.479,0.234-0.719,0.352-1.197,0.588c-0.84-1.694-1.259-2.541-2.099-4.235
					c-0.426,0.211-0.639,0.317-1.064,0.531c-0.203-0.404-0.305-0.606-0.507-1.01c0.427-0.215,0.642-0.321,1.07-0.533
					c-0.246-0.495-0.367-0.743-0.612-1.238c-0.295-0.596-0.361-1.157-0.191-1.684c0.17-0.526,0.545-0.931,1.125-1.212
					C414.391,52.499,414.763,52.432,415.22,52.439z"/>
				<path fill="#FFFFFF" d="M418.874,56.888c1.304-0.615,1.957-0.917,3.268-1.511c0.199,0.44,0.299,0.66,0.498,1.1
					c-1.304,0.59-1.955,0.891-3.251,1.503C419.182,57.543,419.079,57.324,418.874,56.888z"/>
				<path fill="#FFFFFF" d="M424.946,47.754c3.222,2.714,4.801,4.096,7.894,6.905c-0.515,0.206-0.772,0.31-1.286,0.519
					c-0.766-0.688-1.15-1.03-1.924-1.712c-1.536,0.634-2.301,0.959-3.828,1.623c-0.044,1.028-0.064,1.543-0.1,2.57
					c-0.505,0.223-0.757,0.334-1.262,0.561C424.569,54.046,424.669,51.951,424.946,47.754z M426.044,50.355
					c-0.085,1.438-0.123,2.154-0.19,3.589c1.164-0.502,1.747-0.75,2.916-1.235C427.687,51.762,427.142,51.292,426.044,50.355z"/>
				<path fill="#FFFFFF" d="M435.12,47.228c1.22,1.201,1.823,1.805,3.022,3.02c0.2-1.623,0.306-2.435,0.53-4.06
					c0.444-0.159,0.666-0.237,1.11-0.394c-0.389,2.689-0.565,4.033-0.888,6.717c-1.144-1.172-1.721-1.754-2.885-2.914
					c-0.118,1.62-0.171,2.43-0.268,4.047c-2.002-1.789-3.02-2.674-5.077-4.422c0.44-0.176,0.661-0.264,1.102-0.438
					c1.239,1.06,1.854,1.595,3.072,2.669C434.94,49.764,434.996,48.919,435.12,47.228z"/>
				<path fill="#FFFFFF" d="M445.577,43.839c0.513-0.166,0.77-0.249,1.284-0.411c0.707,2.233,1.06,3.351,1.767,5.584
					c-0.501,0.159-0.752,0.239-1.252,0.4c-0.143-0.443-0.215-0.666-0.358-1.108c-0.34,1.04-0.954,1.706-1.853,2.006
					c-0.779,0.261-1.539,0.201-2.289-0.181c-0.75-0.382-1.27-0.979-1.555-1.796c-0.27-0.773-0.227-1.548,0.142-2.324
					s0.941-1.294,1.712-1.552c0.476-0.159,0.968-0.19,1.473-0.092c0.505,0.099,0.937,0.302,1.295,0.609
					C445.797,44.52,445.724,44.293,445.577,43.839z M446.656,46.586c-0.164-0.509-0.501-0.882-1.016-1.116
					c-0.514-0.233-1.049-0.257-1.602-0.074c-0.539,0.179-0.947,0.516-1.226,1.01s-0.333,0.982-0.167,1.466
					c0.179,0.524,0.524,0.903,1.034,1.14c0.51,0.236,1.038,0.266,1.586,0.083c0.544-0.181,0.951-0.518,1.223-1.012
					C446.762,47.59,446.818,47.09,446.656,46.586z"/>
				<path fill="#FFFFFF" d="M450.229,42.392c0.139,0.462,0.207,0.694,0.346,1.157c0.146-0.548,0.327-0.966,0.54-1.254
					c0.213-0.287,0.542-0.496,0.984-0.624c0.124-0.036,0.31-0.061,0.558-0.073c-0.021,0.52-0.032,0.781-0.051,1.301
					c-0.26,0.026-0.429,0.049-0.507,0.072c-0.434,0.126-0.756,0.375-0.966,0.74c-0.209,0.366-0.25,0.758-0.125,1.175
					c0.372,1.243,0.558,1.865,0.93,3.108c-0.503,0.151-0.753,0.227-1.256,0.38c-0.686-2.24-1.03-3.361-1.715-5.602
					C449.471,42.618,449.725,42.542,450.229,42.392z"/>
				<path fill="#FFFFFF" d="M460.778,42.764c-2.078,0.525-3.115,0.799-5.184,1.374c0.273,0.547,0.646,0.899,1.116,1.057
					c0.47,0.158,0.937,0.176,1.404,0.051c0.721-0.193,1.251-0.633,1.595-1.323c0.441,0.167,0.661,0.252,1.1,0.421
					c-0.483,1.026-1.3,1.688-2.463,1.999c-0.892,0.239-1.714,0.157-2.476-0.249c-0.762-0.406-1.267-1.033-1.508-1.884
					c-0.226-0.797-0.114-1.575,0.343-2.334s1.14-1.262,2.042-1.503c0.886-0.237,1.725-0.138,2.51,0.298
					S460.547,41.807,460.778,42.764z M455.463,43.149c1.488-0.412,2.232-0.612,3.725-0.999c-0.616-0.671-1.334-0.899-2.146-0.682
					C456.154,41.707,455.627,42.27,455.463,43.149z"/>
				<path fill="#FFFFFF" d="M462.663,45.065c-0.562-2.274-0.842-3.412-1.404-5.686c0.509-0.125,0.765-0.188,1.275-0.311
					c0.091,0.378,0.135,0.567,0.227,0.945c0.282-0.472,0.555-0.832,0.818-1.081s0.583-0.417,0.959-0.504
					c0.561-0.13,1.082-0.069,1.556,0.184s0.764,0.62,0.871,1.1c0.367,1.652,0.549,2.479,0.916,4.131
					c-0.511,0.113-0.765,0.171-1.275,0.287c-0.344-1.509-0.516-2.264-0.86-3.773c-0.07-0.31-0.236-0.54-0.5-0.693
					c-0.264-0.153-0.563-0.191-0.897-0.113c-0.434,0.101-0.768,0.358-1,0.771c-0.232,0.413-0.291,0.858-0.175,1.337
					c0.298,1.239,0.448,1.861,0.747,3.1C463.417,44.879,463.166,44.941,462.663,45.065z"/>
				<path fill="#FFFFFF" d="M475.038,39.639c-2.101,0.391-3.15,0.598-5.243,1.038c0.237,0.564,0.586,0.939,1.044,1.127
					c0.458,0.188,0.921,0.235,1.394,0.141c0.729-0.146,1.284-0.551,1.669-1.217c0.429,0.195,0.642,0.294,1.069,0.491
					c-0.545,0.993-1.399,1.601-2.575,1.837c-0.902,0.181-1.715,0.046-2.448-0.408c-0.732-0.455-1.195-1.112-1.382-1.977
					c-0.174-0.81-0.015-1.581,0.488-2.308s1.212-1.184,2.124-1.367c0.896-0.18,1.726-0.027,2.479,0.458
					S474.868,38.669,475.038,39.639z M469.725,39.682c1.505-0.315,2.26-0.465,3.77-0.755c-0.571-0.709-1.272-0.983-2.094-0.818
					C470.503,38.289,469.943,38.815,469.725,39.682z"/>
				<path fill="#FFFFFF" d="M479.856,36.294c-0.305,0.343-0.456,0.515-0.758,0.859c-0.251-0.112-0.465-0.193-0.644-0.242
					c-0.179-0.049-0.382-0.054-0.609-0.015c-0.533,0.091-0.768,0.32-0.704,0.684c0.046,0.261,0.428,0.455,1.143,0.586
					c0.715,0.132,1.242,0.322,1.584,0.568c0.342,0.246,0.547,0.576,0.615,0.991c0.079,0.485-0.066,0.943-0.426,1.373
					c-0.36,0.43-0.82,0.693-1.386,0.791c-0.861,0.147-1.632-0.104-2.322-0.758c0.373-0.258,0.561-0.388,0.935-0.644
					c0.415,0.263,0.812,0.363,1.198,0.297c0.268-0.046,0.488-0.153,0.666-0.324c0.178-0.171,0.251-0.349,0.221-0.531
					c-0.054-0.322-0.454-0.555-1.205-0.69c-0.751-0.136-1.288-0.309-1.606-0.523c-0.319-0.214-0.514-0.514-0.583-0.9
					c-0.086-0.479,0.035-0.913,0.369-1.301c0.333-0.388,0.797-0.634,1.389-0.735S479.033,35.847,479.856,36.294z"/>
				<path fill="#FFFFFF" d="M485.021,35.518c-0.312,0.336-0.467,0.504-0.776,0.841c-0.248-0.118-0.46-0.203-0.638-0.256
					c-0.177-0.053-0.38-0.062-0.607-0.028c-0.535,0.079-0.774,0.302-0.719,0.667c0.04,0.262,0.417,0.464,1.128,0.611
					c0.711,0.148,1.233,0.351,1.57,0.604c0.336,0.253,0.535,0.588,0.592,1.005c0.067,0.487-0.086,0.941-0.455,1.363
					c-0.37,0.422-0.835,0.674-1.403,0.758c-0.863,0.128-1.628-0.141-2.303-0.811c0.378-0.25,0.568-0.374,0.948-0.622
					c0.408,0.272,0.804,0.381,1.19,0.324c0.268-0.04,0.492-0.144,0.672-0.311c0.181-0.167,0.26-0.341,0.233-0.523
					c-0.046-0.323-0.442-0.566-1.189-0.719c-0.748-0.153-1.279-0.335-1.593-0.558c-0.313-0.222-0.501-0.526-0.562-0.914
					c-0.076-0.481,0.056-0.912,0.398-1.292c0.342-0.38,0.81-0.617,1.403-0.705S484.208,35.052,485.021,35.518z"/>
				<path fill="#FFFFFF" d="M494.908,34.627c0.881,0.721,1.317,1.084,2.184,1.813c0.396-0.484,0.595-0.726,0.995-1.208
					c0.398,0.281,0.598,0.421,0.994,0.703c-0.421,0.516-0.631,0.774-1.047,1.292c0.873,0.735,1.307,1.104,2.166,1.848
					c-0.679,0.05-1.018,0.077-1.697,0.132c-0.489-0.414-0.735-0.621-1.228-1.032c-0.988,1.065-1.977,1.65-2.992,1.752
					c-0.871,0.087-1.65-0.09-2.342-0.534c-0.692-0.445-1.081-1.018-1.162-1.724c-0.061-0.526,0.032-0.977,0.28-1.35
					c0.248-0.374,1.797-1.462,1.818-1.716c0.004-0.044-0.201-0.221-0.275-0.293c-0.495-0.48-0.81-0.836-0.92-1.074
					c-0.111-0.238-0.177-0.453-0.198-0.646c-0.057-0.522,0.117-1.024,0.529-1.506c0.412-0.481,1.007-0.762,1.776-0.837
					c0.672-0.066,1.262,0.087,1.769,0.459c0.507,0.373,0.785,0.854,0.837,1.444C496.47,32.999,495.969,33.822,494.908,34.627z
					 M496.338,37.378c-0.979-0.815-1.473-1.219-2.469-2.023c-0.807,0.604-1.305,1.048-1.503,1.331
					c-0.198,0.283-0.282,0.557-0.253,0.82c0.043,0.395,0.267,0.714,0.669,0.959c0.401,0.245,0.861,0.341,1.384,0.288
					c0.393-0.04,0.751-0.168,1.074-0.387C495.562,38.149,495.929,37.819,496.338,37.378z M493.928,33.856
					c0.203,0.001,0.732-0.611,0.936-0.854c0.204-0.243,0.294-0.489,0.271-0.739c-0.027-0.287-0.154-0.509-0.384-0.663
					c-0.23-0.154-0.527-0.213-0.892-0.177c-0.339,0.033-0.609,0.146-0.81,0.338s-0.289,0.418-0.262,0.677
					C492.825,32.815,493.61,33.855,493.928,33.856z"/>
				<path fill="#FFFFFF" d="M509.039,29.214c1.997,3.692,2.959,5.548,4.807,9.28c-0.545,0.007-0.817,0.012-1.362,0.022
					c-0.46-0.917-0.692-1.375-1.161-2.29c-1.631,0.04-2.447,0.068-4.077,0.137c-0.402,0.943-0.601,1.415-0.993,2.36
					c-0.541,0.025-0.81,0.04-1.351,0.068C506.482,34.946,507.309,33.031,509.039,29.214z M509.131,32.035
					c-0.583,1.31-0.871,1.965-1.437,3.279c1.242-0.05,1.862-0.07,3.104-0.104C510.14,33.938,509.807,33.303,509.131,32.035z"/>
				<path fill="#FFFFFF" d="M519.558,36.699c-0.007,0.565-0.01,0.847-0.017,1.412c-0.668,0.352-1.311,0.527-1.933,0.525
					c-0.851-0.002-1.595-0.303-2.24-0.907c-0.646-0.604-0.979-1.303-0.988-2.103c-0.01-0.909,0.308-1.666,0.955-2.269
					s1.468-0.906,2.454-0.902c0.588,0.002,1.193,0.149,1.812,0.44c-0.006,0.551-0.01,0.824-0.016,1.375
					c-0.659-0.405-1.289-0.607-1.884-0.609c-0.549-0.002-1.032,0.178-1.442,0.538c-0.41,0.361-0.61,0.784-0.607,1.267
					c0.003,0.544,0.197,1.001,0.579,1.371c0.383,0.37,0.847,0.554,1.397,0.556C518.189,37.396,518.83,37.164,519.558,36.699z"/>
				<path fill="#FFFFFF" d="M526.225,32.803c0.533,0.021,0.798,0.032,1.331,0.057c-0.107,2.34-0.161,3.51-0.269,5.85
					c-0.52-0.024-0.777-0.036-1.297-0.057c0.019-0.465,0.028-0.697,0.047-1.162c-0.671,0.858-1.47,1.272-2.405,1.244
					c-0.811-0.024-1.495-0.344-2.06-0.961c-0.564-0.618-0.842-1.357-0.827-2.223c0.014-0.819,0.32-1.528,0.926-2.129
					s1.313-0.891,2.116-0.867c0.496,0.015,0.963,0.155,1.397,0.421c0.435,0.267,0.766,0.607,0.993,1.019
					C526.197,33.519,526.205,33.28,526.225,32.803z M526.289,35.754c0.021-0.534-0.165-1.001-0.562-1.397
					c-0.396-0.396-0.886-0.605-1.461-0.623c-0.561-0.018-1.057,0.16-1.482,0.527s-0.642,0.807-0.653,1.318
					c-0.013,0.554,0.18,1.028,0.571,1.427c0.392,0.398,0.868,0.604,1.439,0.623c0.565,0.018,1.061-0.157,1.481-0.527
					C526.044,36.731,526.268,36.283,526.289,35.754z"/>
				<path fill="#FFFFFF" d="M535.105,29.962c0.533,0.041,0.8,0.062,1.333,0.107c-0.304,3.672-0.457,5.509-0.763,9.182
					c-0.507-0.042-0.76-0.063-1.267-0.103c0.038-0.487,0.057-0.73,0.095-1.217c-0.687,0.872-1.52,1.271-2.51,1.206
					c-0.801-0.053-1.466-0.399-2.006-1.042c-0.539-0.643-0.789-1.389-0.743-2.244c0.045-0.836,0.378-1.542,1.009-2.11
					c0.631-0.568,1.364-0.825,2.192-0.77c0.495,0.033,0.95,0.194,1.36,0.48s0.723,0.644,0.945,1.074
					C534.894,32.701,534.965,31.788,535.105,29.962z M534.772,36.229c0.041-0.524-0.127-0.993-0.509-1.408s-0.861-0.645-1.431-0.684
					c-0.59-0.041-1.102,0.115-1.534,0.465c-0.432,0.35-0.661,0.797-0.693,1.34c-0.031,0.52,0.148,0.987,0.535,1.402
					c0.387,0.416,0.851,0.641,1.396,0.679c0.58,0.04,1.085-0.113,1.52-0.46C534.491,37.215,534.73,36.771,534.772,36.229z"/>
				<path fill="#FFFFFF" d="M544.107,37.4c-2.116-0.252-3.178-0.367-5.299-0.57c0.058,0.609,0.279,1.07,0.658,1.386
					s0.804,0.499,1.281,0.549c0.736,0.078,1.387-0.143,1.952-0.665c0.35,0.314,0.522,0.472,0.87,0.787
					c-0.814,0.786-1.809,1.111-2.997,0.986c-0.912-0.096-1.648-0.465-2.21-1.117c-0.561-0.652-0.803-1.419-0.723-2.3
					c0.075-0.825,0.458-1.512,1.152-2.057s1.503-0.771,2.425-0.675c0.905,0.095,1.65,0.489,2.223,1.177S544.234,36.424,544.107,37.4
					z M539.037,35.859c1.525,0.147,2.29,0.228,3.812,0.4c-0.332-0.847-0.92-1.318-1.75-1.405
					C540.192,34.759,539.503,35.096,539.037,35.859z"/>
				<path fill="#FFFFFF" d="M545.15,40.237c0.293-2.324,0.44-3.486,0.732-5.81c0.523,0.066,0.785,0.1,1.309,0.169
					c-0.047,0.357-0.07,0.537-0.117,0.895c0.356-0.326,0.687-0.554,0.99-0.685c0.305-0.131,0.643-0.17,1.008-0.12
					c0.477,0.066,0.836,0.216,1.079,0.447c0.243,0.231,0.545,1.017,0.552,1.019c0.074,0.021,0.754-0.63,1.091-0.776
					c0.337-0.145,0.712-0.186,1.118-0.122c0.498,0.078,0.897,0.318,1.202,0.72c0.304,0.402,0.417,0.839,0.34,1.311
					c-0.276,1.681-0.415,2.521-0.692,4.202c-0.515-0.085-0.773-0.126-1.288-0.208c0.248-1.556,0.371-2.334,0.618-3.89
					c0.102-0.64-0.188-1.017-0.87-1.123c-0.389-0.06-0.746,0.055-1.065,0.342c-0.319,0.288-0.51,0.671-0.581,1.153
					c-0.187,1.261-0.284,1.892-0.472,3.153c-0.516-0.076-0.772-0.114-1.288-0.188c0.213-1.495,0.319-2.243,0.532-3.738
					c0.107-0.759-0.173-1.187-0.845-1.279c-0.398-0.055-0.758,0.053-1.076,0.326s-0.508,0.638-0.567,1.093
					c-0.172,1.309-0.26,1.964-0.432,3.272C545.917,40.335,545.661,40.301,545.15,40.237z"/>
				<path fill="#FFFFFF" d="M556.465,34.052c0.043-0.251,0.183-0.452,0.419-0.601c0.235-0.149,0.492-0.197,0.773-0.148
					c0.276,0.048,0.5,0.182,0.669,0.402c0.168,0.22,0.229,0.455,0.184,0.707c-0.046,0.256-0.188,0.456-0.42,0.602
					c-0.233,0.146-0.485,0.196-0.76,0.147c-0.279-0.049-0.502-0.183-0.673-0.399C556.485,34.545,556.421,34.309,556.465,34.052z
					 M556.509,36.012c0.521,0.09,0.784,0.135,1.305,0.229c-0.412,2.306-0.618,3.459-1.031,5.765
					c-0.508-0.091-0.764-0.136-1.271-0.224C555.91,39.474,556.109,38.32,556.509,36.012z"/>
				<path fill="#FFFFFF" d="M563.621,41.509c-0.116,0.553-0.173,0.83-0.289,1.383c-0.727,0.215-1.394,0.262-2.006,0.14
					c-0.838-0.167-1.514-0.607-2.033-1.325c-0.52-0.717-0.716-1.468-0.569-2.254c0.166-0.894,0.624-1.577,1.379-2.043
					c0.755-0.466,1.625-0.603,2.597-0.407c0.579,0.116,1.147,0.378,1.702,0.784c-0.112,0.539-0.17,0.808-0.282,1.347
					c-0.572-0.525-1.154-0.847-1.74-0.965c-0.541-0.108-1.05-0.024-1.523,0.25c-0.474,0.275-0.756,0.65-0.847,1.124
					c-0.103,0.534,0,1.02,0.305,1.457c0.306,0.438,0.729,0.708,1.271,0.817C562.137,41.927,562.813,41.824,563.621,41.509z"/>
				<path fill="#FFFFFF" d="M571.145,35.754c0.779,0.185,1.169,0.278,1.947,0.469c1.099,0.27,1.926,0.729,2.475,1.369
					c0.55,0.641,0.722,1.336,0.526,2.082c-0.197,0.751-0.714,1.287-1.541,1.617s-1.941,0.308-3.354-0.049
					c-0.352,1.446-0.526,2.167-0.878,3.613c-0.503-0.122-0.754-0.181-1.258-0.3C569.896,41.035,570.312,39.274,571.145,35.754z
					 M572.198,37.116c-0.298,1.23-0.446,1.845-0.745,3.076c0.977,0.228,1.729,0.282,2.26,0.155c0.532-0.127,0.868-0.459,1.007-1
					c0.104-0.408,0.017-0.807-0.267-1.196S573.419,37.412,572.198,37.116z"/>
				<path fill="#FFFFFF" d="M579.084,41.085c-0.129,0.465-0.195,0.698-0.324,1.163c0.416-0.386,0.792-0.643,1.126-0.773
					c0.333-0.129,0.722-0.131,1.163-0.004c0.124,0.036,0.293,0.114,0.51,0.235c-0.295,0.429-0.441,0.644-0.734,1.073
					c-0.233-0.117-0.389-0.186-0.467-0.208c-0.435-0.124-0.839-0.087-1.211,0.111c-0.371,0.198-0.615,0.507-0.732,0.927
					c-0.348,1.25-0.521,1.876-0.869,3.126c-0.505-0.141-0.758-0.21-1.264-0.348c0.614-2.261,0.923-3.391,1.537-5.652
					C578.325,40.874,578.578,40.944,579.084,41.085z"/>
				<path fill="#FFFFFF" d="M587.827,47.026c-2.048-0.667-3.074-0.987-5.134-1.604c-0.061,0.609,0.068,1.105,0.383,1.49
					c0.313,0.385,0.7,0.648,1.163,0.792c0.714,0.222,1.399,0.133,2.06-0.267c0.285,0.377,0.428,0.566,0.711,0.944
					c-0.959,0.61-2.006,0.733-3.158,0.376c-0.885-0.274-1.54-0.782-1.969-1.532s-0.523-1.55-0.273-2.399
					c0.233-0.794,0.745-1.394,1.537-1.792s1.64-0.46,2.533-0.184c0.878,0.272,1.537,0.805,1.972,1.593
					S588.142,46.093,587.827,47.026z M583.108,44.517c1.48,0.445,2.22,0.673,3.694,1.144c-0.165-0.897-0.654-1.474-1.46-1.724
					C584.464,43.664,583.717,43.859,583.108,44.517z"/>
				<path fill="#FFFFFF" d="M591.719,44.986c-0.151,0.446-0.229,0.669-0.38,1.115c0.896-0.64,1.829-0.792,2.78-0.457
					c0.781,0.275,1.353,0.801,1.707,1.571c0.354,0.771,0.384,1.548,0.096,2.334c-0.292,0.795-0.825,1.379-1.592,1.756
					c-0.766,0.376-1.522,0.432-2.278,0.166c-0.437-0.154-0.818-0.406-1.147-0.76c-0.328-0.354-0.557-0.78-0.682-1.277
					c-0.504,1.481-0.756,2.222-1.26,3.703c-0.492-0.167-0.739-0.251-1.232-0.416c1.09-3.264,1.636-4.896,2.726-8.161
					C590.962,44.728,591.213,44.814,591.719,44.986z M594.607,49.072c0.175-0.485,0.131-0.98-0.136-1.485s-0.673-0.853-1.212-1.042
					c-0.549-0.192-1.086-0.175-1.61,0.05c-0.525,0.226-0.869,0.588-1.036,1.081c-0.172,0.506-0.127,1.01,0.137,1.515
					s0.661,0.85,1.191,1.035c0.55,0.192,1.084,0.175,1.606-0.05C594.07,49.952,594.423,49.584,594.607,49.072z"/>
				<path fill="#FFFFFF" d="M603.599,49.392c0.503,0.203,0.755,0.305,1.258,0.511c-0.887,2.168-1.331,3.252-2.219,5.42
					c-0.49-0.201-0.735-0.3-1.226-0.497c0.174-0.432,0.264-0.647,0.438-1.08c-0.931,0.579-1.836,0.696-2.722,0.35
					c-0.769-0.3-1.313-0.834-1.646-1.608c-0.333-0.774-0.352-1.568-0.048-2.378c0.287-0.767,0.817-1.331,1.598-1.69
					s1.554-0.39,2.314-0.094c0.47,0.183,0.871,0.475,1.198,0.875c0.327,0.4,0.531,0.833,0.611,1.299
					C603.333,50.057,603.421,49.835,603.599,49.392z M602.67,52.196c0.2-0.496,0.181-1-0.067-1.51
					c-0.247-0.509-0.645-0.872-1.189-1.086c-0.53-0.208-1.064-0.211-1.596-0.01s-0.885,0.541-1.067,1.019
					c-0.197,0.517-0.176,1.03,0.066,1.539c0.242,0.509,0.63,0.869,1.171,1.081c0.536,0.21,1.066,0.212,1.594,0.008
					C602.109,53.033,602.472,52.688,602.67,52.196z"/>
				<path fill="#FFFFFF" d="M608.134,51.273c-0.189,0.444-0.283,0.667-0.473,1.11c0.466-0.326,0.874-0.529,1.225-0.613
					c0.351-0.083,0.738-0.031,1.164,0.155c0.119,0.052,0.28,0.153,0.481,0.304c-0.351,0.385-0.525,0.578-0.875,0.964
					c-0.219-0.147-0.364-0.238-0.439-0.271c-0.419-0.183-0.827-0.2-1.226-0.055c-0.397,0.146-0.684,0.42-0.854,0.82
					c-0.51,1.193-0.764,1.79-1.273,2.983c-0.487-0.208-0.733-0.312-1.222-0.518c0.907-2.16,1.362-3.238,2.27-5.397
					C607.4,50.962,607.646,51.064,608.134,51.273z"/>
				<path fill="#FFFFFF" d="M616.434,55.015c0.493,0.234,0.74,0.352,1.232,0.589c-1.016,2.111-1.524,3.166-2.541,5.276
					c-0.479-0.231-0.719-0.346-1.199-0.574c0.199-0.421,0.302-0.631,0.501-1.052c-0.968,0.521-1.882,0.581-2.751,0.18
					c-0.754-0.348-1.271-0.916-1.561-1.709c-0.289-0.795-0.261-1.586,0.092-2.377c0.333-0.748,0.9-1.282,1.704-1.592
					s1.583-0.292,2.328,0.052c0.461,0.212,0.844,0.529,1.148,0.949c0.305,0.42,0.483,0.866,0.537,1.337
					C616.129,55.663,616.229,55.446,616.434,55.015z M615.341,57.757c0.229-0.483,0.238-0.988,0.02-1.513s-0.598-0.913-1.132-1.161
					c-0.521-0.241-1.054-0.276-1.599-0.109s-0.921,0.485-1.132,0.951c-0.229,0.504-0.233,1.019-0.021,1.543
					c0.213,0.523,0.582,0.905,1.112,1.151c0.525,0.244,1.055,0.28,1.596,0.109C614.728,58.559,615.113,58.236,615.341,57.757z"/>
				<path fill="#FFFFFF" d="M620.661,55.171c0.494,0.245,0.74,0.367,1.233,0.615c-0.306,0.609-0.459,0.913-0.765,1.521
					c0.483,0.243,0.726,0.365,1.208,0.611c-0.205,0.402-0.308,0.604-0.513,1.007c-0.48-0.245-0.721-0.367-1.202-0.608
					c-0.848,1.69-1.271,2.535-2.12,4.225c-0.478-0.24-0.715-0.359-1.193-0.596c0.839-1.695,1.26-2.541,2.098-4.236
					c-0.384-0.19-0.577-0.285-0.962-0.474c0.201-0.411,0.301-0.617,0.502-1.027c0.387,0.189,0.579,0.285,0.965,0.476
					C620.212,56.08,620.361,55.777,620.661,55.171z"/>
				<path fill="#FFFFFF" d="M624.066,56.643c0.117-0.227,0.313-0.375,0.588-0.443s0.542-0.035,0.802,0.101
					c0.254,0.132,0.431,0.331,0.529,0.594c0.1,0.264,0.088,0.506-0.031,0.732c-0.121,0.23-0.314,0.38-0.586,0.446
					c-0.271,0.067-0.534,0.034-0.786-0.098c-0.258-0.134-0.438-0.331-0.541-0.592S623.947,56.875,624.066,56.643z M623.528,58.531
					c0.481,0.249,0.724,0.374,1.204,0.625c-1.088,2.075-1.631,3.113-2.719,5.188c-0.469-0.246-0.702-0.369-1.172-0.611
					C621.917,61.652,622.453,60.612,623.528,58.531z"/>
				<path fill="#FFFFFF" d="M624.858,62.508c0.376-0.706,1.017-1.17,1.929-1.385c0.912-0.215,1.77-0.102,2.568,0.34
					c0.821,0.454,1.389,1.125,1.695,2.003c0.308,0.878,0.255,1.672-0.152,2.382c-0.409,0.714-1.065,1.174-1.961,1.387
					c-0.895,0.213-1.722,0.107-2.49-0.318c-0.822-0.455-1.389-1.115-1.704-1.99C624.429,64.053,624.464,63.247,624.858,62.508z
					 M629.755,65.202c0.245-0.433,0.274-0.914,0.089-1.439c-0.186-0.525-0.531-0.929-1.036-1.208
					c-0.519-0.287-1.054-0.368-1.606-0.245s-0.954,0.413-1.2,0.868c-0.234,0.434-0.252,0.915-0.054,1.444s0.549,0.93,1.05,1.207
					c0.488,0.271,1.007,0.343,1.558,0.218C629.106,65.92,629.508,65.639,629.755,65.202z"/>
				<path fill="#FFFFFF" d="M630.461,69.006c1.175-2.026,1.763-3.041,2.938-5.067c0.466,0.271,0.699,0.406,1.164,0.68
					c-0.197,0.335-0.296,0.503-0.493,0.838c0.54-0.138,0.996-0.201,1.367-0.193c0.37,0.008,0.726,0.113,1.066,0.318
					c0.51,0.306,0.855,0.72,1.032,1.238s0.136,0.986-0.121,1.406c-0.884,1.443-1.327,2.164-2.211,3.607
					c-0.461-0.282-0.692-0.423-1.154-0.703c0.801-1.324,1.204-1.985,2.005-3.31c0.164-0.271,0.201-0.555,0.112-0.852
					s-0.286-0.536-0.589-0.717c-0.395-0.236-0.824-0.288-1.286-0.157c-0.463,0.13-0.817,0.411-1.066,0.835
					c-0.646,1.099-0.97,1.647-1.615,2.747C631.15,69.407,630.921,69.273,630.461,69.006z"/>
			</g>
		</g>
	</g>
</g>
<g id="Spartan">
	<g>
		<g>
			<defs>
				<rect id="SVGID_1_" x="455.387" y="230.768" width="123.227" height="136.305"/>
			</defs>
			<clipPath id="SVGID_2_">
				<use xlink:href="#SVGID_1_"  overflow="visible"/>
			</clipPath>
			<g clip-path="url(#SVGID_2_)">
				<defs>
					<rect id="SVGID_3_" x="455.387" y="230.768" width="123.227" height="136.305"/>
				</defs>
				<clipPath id="SVGID_4_">
					<use xlink:href="#SVGID_3_"  overflow="visible"/>
				</clipPath>
				<path clip-path="url(#SVGID_4_)" fill="#D5A4A1" d="M481.275,317.713l-24.631,3.127c0.371,2.022,0.805,4.035,1.343,6.033
					l23.583-7.801C481.462,318.62,481.371,318.168,481.275,317.713 M480.305,311.312l-24.795,0.015
					c0.114,2.053,0.315,4.101,0.597,6.146l24.36-4.779C480.417,312.234,480.343,311.775,480.305,311.312 M480.178,304.844
					l-24.612-3.095c-0.142,2.053-0.197,4.109-0.174,6.17l24.736-1.684C480.137,305.771,480.159,305.308,480.178,304.844
					 M480.881,298.419l-24.044-6.159c-0.397,2.018-0.722,4.05-0.956,6.092l24.767,1.434
					C480.711,299.327,480.805,298.874,480.881,298.419 M482.337,292.119l-23.081-9.121c-0.646,1.956-1.2,3.935-1.687,5.929
					l24.405,4.527C482.096,293.009,482.205,292.562,482.337,292.119 M484.565,286.049l-21.731-11.927
					c-0.887,1.86-1.708,3.743-2.438,5.66l23.643,7.549C484.213,286.904,484.379,286.472,484.565,286.049 M487.59,280.341
					l-20.099-14.575c-1.115,1.735-2.153,3.506-3.116,5.313l22.483,10.438C487.085,281.116,487.351,280.734,487.59,280.341
					 M491.278,275.039l-18.121-16.981c-1.326,1.584-2.579,3.211-3.759,4.877l21.038,13.196
					C490.711,275.764,490.991,275.398,491.278,275.039 M495.579,270.216l-15.82-19.076c-1.517,1.405-2.968,2.855-4.346,4.358
					l19.218,15.723C494.951,270.89,495.248,270.54,495.579,270.216 M500.473,266.001l-13.314-20.917
					c-0.831,0.597-1.66,1.197-2.473,1.832c-0.812,0.634-1.596,1.294-2.375,1.956l17.075,17.979c0.18-0.145,0.339-0.307,0.523-0.453
					C500.092,266.256,500.29,266.144,500.473,266.001 M505.861,262.445l-10.606-22.451c-1.79,0.974-3.549,2.031-5.279,3.163
					l14.682,19.965C505.053,262.878,505.463,262.678,505.861,262.445 M511.641,259.562l-7.713-23.605
					c-1.903,0.743-3.785,1.563-5.643,2.468l12.092,21.689C510.796,259.924,511.219,259.743,511.641,259.562 M517.732,257.395
					l-4.689-24.342c-1.984,0.499-3.954,1.077-5.909,1.738l9.28,23.03C516.855,257.684,517.291,257.518,517.732,257.395
					 M524.059,256.064l-1.605-24.767c-2.037,0.248-4.064,0.588-6.083,0.998l6.314,23.972
					C523.141,256.186,523.6,256.131,524.059,256.064 M530.498,255.544l1.511-24.775c-2.053-0.011-4.106,0.048-6.161,0.202
					l3.267,24.601C529.576,255.551,530.037,255.553,530.498,255.544 M536.961,255.788l4.602-24.376
					c-2.039-0.267-4.087-0.444-6.143-0.545l0.158,24.819C536.039,255.719,536.502,255.741,536.961,255.788 M543.345,256.844
					l7.615-23.594c-1.99-0.52-4.002-0.966-6.024-1.323l-2.953,24.63C542.439,256.649,542.892,256.741,543.345,256.844
					 M549.53,258.734l10.529-22.48c-1.915-0.766-3.854-1.457-5.816-2.066l-6.016,24.055
					C548.669,258.392,549.094,258.575,549.53,258.734 M555.453,261.35l13.274-20.995c-1.809-1.004-3.658-1.914-5.529-2.763
					l-8.993,23.14C554.621,260.936,555.04,261.134,555.453,261.35"/>
				<path clip-path="url(#SVGID_4_)" fill="#FFDB9B" d="M503.44,270.922c-16.834,13.153-21.108,36.366-11.055,54.475l66.588-52.023
					C543.835,259.239,520.276,257.77,503.44,270.922"/>
				<path clip-path="url(#SVGID_4_)" fill="#FFDB9B" d="M558.973,273.384l-66.522,52.012c6.88,17.836,1.445,41.675,1.445,41.675
					s25.905-7.701,47.611-35.006c19.14-24.078,37.107-6.669,37.107-6.669L558.973,273.384z"/>
				<polygon clip-path="url(#SVGID_4_)" fill="#FFFFFF" points="557.608,289.355 532.814,289.355 560.953,298.458 				"/>
			</g>
		</g>
	</g>
</g>
</svg>
